solid 
 facet normal -2.594273e-01  9.657626e-01  0.000000e+00
   outer loop
     vertex  4.989643e+01  2.221788e-01  0.000000e+00
     vertex  5.000000e+01  2.500000e-01  5.000000e+01
     vertex  5.000000e+01  2.500000e-01  0.000000e+00
   endloop
 endfacet
 facet normal -2.594273e-01  9.657626e-01  0.000000e+00
   outer loop
     vertex  4.989643e+01  2.221788e-01  0.000000e+00
     vertex  4.989643e+01  2.221788e-01  5.000000e+01
     vertex  5.000000e+01  2.500000e-01  5.000000e+01
   endloop
 endfacet
 facet normal -2.134693e-01  9.769498e-01  0.000000e+00
   outer loop
     vertex  4.979187e+01  1.993316e-01  0.000000e+00
     vertex  4.979187e+01  1.993316e-01  5.000000e+01
     vertex  4.989643e+01  2.221788e-01  5.000000e+01
   endloop
 endfacet
 facet normal -2.134693e-01  9.769498e-01  0.000000e+00
   outer loop
     vertex  4.979187e+01  1.993316e-01  0.000000e+00
     vertex  4.989643e+01  2.221788e-01  5.000000e+01
     vertex  4.989643e+01  2.221788e-01  0.000000e+00
   endloop
 endfacet
 facet normal -1.715612e-01  9.851735e-01  0.000000e+00
   outer loop
     vertex  4.968642e+01  1.809684e-01  0.000000e+00
     vertex  4.968642e+01  1.809684e-01  5.000000e+01
     vertex  4.979187e+01  1.993316e-01  5.000000e+01
   endloop
 endfacet
 facet normal -1.715612e-01  9.851735e-01  0.000000e+00
   outer loop
     vertex  4.968642e+01  1.809684e-01  0.000000e+00
     vertex  4.979187e+01  1.993316e-01  5.000000e+01
     vertex  4.979187e+01  1.993316e-01  0.000000e+00
   endloop
 endfacet
 facet normal -1.385630e-01  9.903536e-01  0.000000e+00
   outer loop
     vertex  4.958030e+01  1.661203e-01  0.000000e+00
     vertex  4.958030e+01  1.661203e-01  5.000000e+01
     vertex  4.968642e+01  1.809684e-01  5.000000e+01
   endloop
 endfacet
 facet normal -8.561342e-02  9.963284e-01  0.000000e+00
   outer loop
     vertex  4.958030e+01  1.661203e-01  0.000000e+00
     vertex  4.814666e+01  4.292903e-02  5.000000e+01
     vertex  4.958030e+01  1.661203e-01  5.000000e+01
   endloop
 endfacet
 facet normal -1.385630e-01  9.903536e-01  0.000000e+00
   outer loop
     vertex  4.958030e+01  1.661203e-01  0.000000e+00
     vertex  4.968642e+01  1.809684e-01  5.000000e+01
     vertex  4.968642e+01  1.809684e-01  0.000000e+00
   endloop
 endfacet
 facet normal -8.561342e-02  9.963284e-01  0.000000e+00
   outer loop
     vertex  4.814666e+01  4.292903e-02  0.000000e+00
     vertex  4.814666e+01  4.292903e-02  5.000000e+01
     vertex  4.958030e+01  1.661203e-01  0.000000e+00
   endloop
 endfacet
 facet normal -3.926622e-02  9.992288e-01  0.000000e+00
   outer loop
     vertex  4.641005e+01 -2.531339e-02  0.000000e+00
     vertex  4.641005e+01 -2.531339e-02  5.000000e+01
     vertex  4.814666e+01  4.292903e-02  5.000000e+01
   endloop
 endfacet
 facet normal -3.926622e-02  9.992288e-01  0.000000e+00
   outer loop
     vertex  4.641005e+01 -2.531339e-02  0.000000e+00
     vertex  4.814666e+01  4.292903e-02  5.000000e+01
     vertex  4.814666e+01  4.292903e-02  0.000000e+00
   endloop
 endfacet
 facet normal -8.119034e-03  9.999670e-01  0.000000e+00
   outer loop
     vertex  4.450993e+01 -4.074104e-02  0.000000e+00
     vertex  4.450993e+01 -4.074104e-02  5.000000e+01
     vertex  4.641005e+01 -2.531339e-02  5.000000e+01
   endloop
 endfacet
 facet normal -8.119034e-03  9.999670e-01  0.000000e+00
   outer loop
     vertex  4.450993e+01 -4.074104e-02  0.000000e+00
     vertex  4.641005e+01 -2.531339e-02  5.000000e+01
     vertex  4.641005e+01 -2.531339e-02  0.000000e+00
   endloop
 endfacet
 facet normal  2.096886e-02  9.997801e-01 -0.000000e+00
   outer loop
     vertex  4.254987e+01  3.682657e-04  0.000000e+00
     vertex  4.254987e+01  3.682657e-04  5.000000e+01
     vertex  4.450993e+01 -4.074104e-02  5.000000e+01
   endloop
 endfacet
 facet normal  2.096886e-02  9.997801e-01  0.000000e+00
   outer loop
     vertex  4.254987e+01  3.682657e-04  0.000000e+00
     vertex  4.450993e+01 -4.074104e-02  5.000000e+01
     vertex  4.450993e+01 -4.074104e-02  0.000000e+00
   endloop
 endfacet
 facet normal  5.882171e-02  9.982685e-01 -0.000000e+00
   outer loop
     vertex  3.980860e+01  1.618942e-01  0.000000e+00
     vertex  3.980860e+01  1.618942e-01  5.000000e+01
     vertex  4.254987e+01  3.682657e-04  5.000000e+01
   endloop
 endfacet
 facet normal  5.882171e-02  9.982685e-01  0.000000e+00
   outer loop
     vertex  3.980860e+01  1.618942e-01  0.000000e+00
     vertex  4.254987e+01  3.682657e-04  5.000000e+01
     vertex  4.254987e+01  3.682657e-04  0.000000e+00
   endloop
 endfacet
 facet normal  9.903451e-02  9.950840e-01 -0.000000e+00
   outer loop
     vertex  3.707600e+01  4.338533e-01  0.000000e+00
     vertex  3.707600e+01  4.338533e-01  5.000000e+01
     vertex  3.980860e+01  1.618942e-01  5.000000e+01
   endloop
 endfacet
 facet normal  9.903451e-02  9.950840e-01  0.000000e+00
   outer loop
     vertex  3.707600e+01  4.338533e-01  0.000000e+00
     vertex  3.980860e+01  1.618942e-01  5.000000e+01
     vertex  3.980860e+01  1.618942e-01  0.000000e+00
   endloop
 endfacet
 facet normal  1.297064e-01  9.915524e-01 -0.000000e+00
   outer loop
     vertex  3.435314e+01  7.900337e-01  0.000000e+00
     vertex  3.435314e+01  7.900337e-01  5.000000e+01
     vertex  3.707600e+01  4.338533e-01  5.000000e+01
   endloop
 endfacet
 facet normal  1.297064e-01  9.915524e-01  0.000000e+00
   outer loop
     vertex  3.435314e+01  7.900337e-01  0.000000e+00
     vertex  3.707600e+01  4.338533e-01  5.000000e+01
     vertex  3.707600e+01  4.338533e-01  0.000000e+00
   endloop
 endfacet
 facet normal  1.625586e-01  9.866989e-01 -0.000000e+00
   outer loop
     vertex  2.532136e+01  2.278020e+00  0.000000e+00
     vertex  2.532136e+01  2.278020e+00  5.000000e+01
     vertex  3.435314e+01  7.900337e-01  5.000000e+01
   endloop
 endfacet
 facet normal  1.625586e-01  9.866989e-01  0.000000e+00
   outer loop
     vertex  2.532136e+01  2.278020e+00  0.000000e+00
     vertex  3.435314e+01  7.900337e-01  5.000000e+01
     vertex  3.435314e+01  7.900337e-01  0.000000e+00
   endloop
 endfacet
 facet normal  1.152675e-01  9.933345e-01 -0.000000e+00
   outer loop
     vertex  2.225270e+01  2.634111e+00  0.000000e+00
     vertex  2.225270e+01  2.634111e+00  5.000000e+01
     vertex  2.532136e+01  2.278020e+00  5.000000e+01
   endloop
 endfacet
 facet normal  6.918943e-02  9.976035e-01 -0.000000e+00
   outer loop
     vertex  2.225270e+01  2.634111e+00  0.000000e+00
     vertex  1.850830e+01  2.893805e+00  5.000000e+01
     vertex  2.225270e+01  2.634111e+00  5.000000e+01
   endloop
 endfacet
 facet normal  1.152675e-01  9.933345e-01  0.000000e+00
   outer loop
     vertex  2.225270e+01  2.634111e+00  0.000000e+00
     vertex  2.532136e+01  2.278020e+00  5.000000e+01
     vertex  2.532136e+01  2.278020e+00  0.000000e+00
   endloop
 endfacet
 facet normal  6.918943e-02  9.976035e-01 -0.000000e+00
   outer loop
     vertex  1.850830e+01  2.893805e+00  0.000000e+00
     vertex  1.850830e+01  2.893805e+00  5.000000e+01
     vertex  2.225270e+01  2.634111e+00  0.000000e+00
   endloop
 endfacet
 facet normal  2.401994e-02  9.997115e-01 -0.000000e+00
   outer loop
     vertex  1.503390e+01  2.977284e+00  0.000000e+00
     vertex  1.503390e+01  2.977284e+00  5.000000e+01
     vertex  1.850830e+01  2.893805e+00  5.000000e+01
   endloop
 endfacet
 facet normal -2.015935e-02  9.997968e-01  0.000000e+00
   outer loop
     vertex  1.503390e+01  2.977284e+00  0.000000e+00
     vertex  1.155925e+01  2.907223e+00  5.000000e+01
     vertex  1.503390e+01  2.977284e+00  5.000000e+01
   endloop
 endfacet
 facet normal  2.401994e-02  9.997115e-01  0.000000e+00
   outer loop
     vertex  1.503390e+01  2.977284e+00  0.000000e+00
     vertex  1.850830e+01  2.893805e+00  5.000000e+01
     vertex  1.850830e+01  2.893805e+00  0.000000e+00
   endloop
 endfacet
 facet normal -2.015935e-02  9.997968e-01  0.000000e+00
   outer loop
     vertex  1.155925e+01  2.907223e+00  0.000000e+00
     vertex  1.155925e+01  2.907223e+00  5.000000e+01
     vertex  1.503390e+01  2.977284e+00  0.000000e+00
   endloop
 endfacet
 facet normal -6.626501e-02  9.978021e-01  0.000000e+00
   outer loop
     vertex  8.750370e+00  2.720683e+00  0.000000e+00
     vertex  8.750370e+00  2.720683e+00  5.000000e+01
     vertex  1.155925e+01  2.907223e+00  5.000000e+01
   endloop
 endfacet
 facet normal -1.120087e-01  9.937072e-01  0.000000e+00
   outer loop
     vertex  8.750370e+00  2.720683e+00  0.000000e+00
     vertex  6.652313e+00  2.484194e+00  5.000000e+01
     vertex  8.750370e+00  2.720683e+00  5.000000e+01
   endloop
 endfacet
 facet normal -6.626501e-02  9.978021e-01  0.000000e+00
   outer loop
     vertex  8.750370e+00  2.720683e+00  0.000000e+00
     vertex  1.155925e+01  2.907223e+00  5.000000e+01
     vertex  1.155925e+01  2.907223e+00  0.000000e+00
   endloop
 endfacet
 facet normal -1.572184e-01  9.875639e-01  0.000000e+00
   outer loop
     vertex  6.652313e+00  2.484194e+00  0.000000e+00
     vertex  5.088439e+00  2.235228e+00  5.000000e+01
     vertex  6.652313e+00  2.484194e+00  5.000000e+01
   endloop
 endfacet
 facet normal -1.120087e-01  9.937072e-01  0.000000e+00
   outer loop
     vertex  6.652313e+00  2.484194e+00  0.000000e+00
     vertex  6.652313e+00  2.484194e+00  5.000000e+01
     vertex  8.750370e+00  2.720683e+00  0.000000e+00
   endloop
 endfacet
 facet normal -1.572184e-01  9.875639e-01  0.000000e+00
   outer loop
     vertex  5.088439e+00  2.235228e+00  0.000000e+00
     vertex  5.088439e+00  2.235228e+00  5.000000e+01
     vertex  6.652313e+00  2.484194e+00  0.000000e+00
   endloop
 endfacet
 facet normal -2.026108e-01  9.792593e-01  0.000000e+00
   outer loop
     vertex  3.925396e+00  1.994592e+00  0.000000e+00
     vertex  5.088439e+00  2.235228e+00  5.000000e+01
     vertex  5.088439e+00  2.235228e+00  0.000000e+00
   endloop
 endfacet
 facet normal -2.026108e-01  9.792593e-01  0.000000e+00
   outer loop
     vertex  3.925396e+00  1.994592e+00  0.000000e+00
     vertex  3.925396e+00  1.994592e+00  5.000000e+01
     vertex  5.088439e+00  2.235228e+00  5.000000e+01
   endloop
 endfacet
 facet normal -2.480493e-01  9.687474e-01  0.000000e+00
   outer loop
     vertex  3.925396e+00  1.994592e+00  0.000000e+00
     vertex  3.062434e+00  1.773629e+00  5.000000e+01
     vertex  3.925396e+00  1.994592e+00  5.000000e+01
   endloop
 endfacet
 facet normal -2.480493e-01  9.687474e-01  0.000000e+00
   outer loop
     vertex  3.062434e+00  1.773629e+00  0.000000e+00
     vertex  3.062434e+00  1.773629e+00  5.000000e+01
     vertex  3.925396e+00  1.994592e+00  0.000000e+00
   endloop
 endfacet
 facet normal -2.922247e-01  9.563497e-01  0.000000e+00
   outer loop
     vertex  2.423232e+00  1.578313e+00  0.000000e+00
     vertex  3.062434e+00  1.773629e+00  5.000000e+01
     vertex  3.062434e+00  1.773629e+00  0.000000e+00
   endloop
 endfacet
 facet normal -2.922247e-01  9.563497e-01  0.000000e+00
   outer loop
     vertex  2.423232e+00  1.578313e+00  0.000000e+00
     vertex  2.423232e+00  1.578313e+00  5.000000e+01
     vertex  3.062434e+00  1.773629e+00  5.000000e+01
   endloop
 endfacet
 facet normal -3.281496e-01  9.446258e-01  0.000000e+00
   outer loop
     vertex  2.084460e+00  1.460628e+00  0.000000e+00
     vertex  2.084460e+00  1.460628e+00  5.000000e+01
     vertex  2.423232e+00  1.578313e+00  5.000000e+01
   endloop
 endfacet
 facet normal -3.576127e-01  9.338700e-01  0.000000e+00
   outer loop
     vertex  2.084460e+00  1.460628e+00  0.000000e+00
     vertex  1.749760e+00  1.332459e+00  5.000000e+01
     vertex  2.084460e+00  1.460628e+00  5.000000e+01
   endloop
 endfacet
 facet normal -3.281496e-01  9.446258e-01  0.000000e+00
   outer loop
     vertex  2.084460e+00  1.460628e+00  0.000000e+00
     vertex  2.423232e+00  1.578313e+00  5.000000e+01
     vertex  2.423232e+00  1.578313e+00  0.000000e+00
   endloop
 endfacet
 facet normal -3.576127e-01  9.338700e-01  0.000000e+00
   outer loop
     vertex  1.749760e+00  1.332459e+00  0.000000e+00
     vertex  1.749760e+00  1.332459e+00  5.000000e+01
     vertex  2.084460e+00  1.460628e+00  0.000000e+00
   endloop
 endfacet
 facet normal -3.929177e-01  9.195737e-01  0.000000e+00
   outer loop
     vertex  1.429980e+00  1.195823e+00  0.000000e+00
     vertex  1.749760e+00  1.332459e+00  5.000000e+01
     vertex  1.749760e+00  1.332459e+00  0.000000e+00
   endloop
 endfacet
 facet normal -3.929177e-01  9.195737e-01  0.000000e+00
   outer loop
     vertex  1.429980e+00  1.195823e+00  0.000000e+00
     vertex  1.429980e+00  1.195823e+00  5.000000e+01
     vertex  1.749760e+00  1.332459e+00  5.000000e+01
   endloop
 endfacet
 facet normal -4.354467e-01  9.002145e-01  0.000000e+00
   outer loop
     vertex  1.147738e+00  1.059299e+00  0.000000e+00
     vertex  1.147738e+00  1.059299e+00  5.000000e+01
     vertex  1.429980e+00  1.195823e+00  5.000000e+01
   endloop
 endfacet
 facet normal -4.788254e-01  8.779102e-01  0.000000e+00
   outer loop
     vertex  1.147738e+00  1.059299e+00  0.000000e+00
     vertex  9.239490e-01  9.372406e-01  5.000000e+01
     vertex  1.147738e+00  1.059299e+00  5.000000e+01
   endloop
 endfacet
 facet normal -4.354467e-01  9.002145e-01  0.000000e+00
   outer loop
     vertex  1.147738e+00  1.059299e+00  0.000000e+00
     vertex  1.429980e+00  1.195823e+00  5.000000e+01
     vertex  1.429980e+00  1.195823e+00  0.000000e+00
   endloop
 endfacet
 facet normal -5.193173e-01  8.545815e-01  0.000000e+00
   outer loop
     vertex  9.239490e-01  9.372406e-01  0.000000e+00
     vertex  7.474947e-01  8.300118e-01  5.000000e+01
     vertex  9.239490e-01  9.372406e-01  5.000000e+01
   endloop
 endfacet
 facet normal -4.788254e-01  8.779102e-01  0.000000e+00
   outer loop
     vertex  9.239490e-01  9.372406e-01  0.000000e+00
     vertex  9.239490e-01  9.372406e-01  5.000000e+01
     vertex  1.147738e+00  1.059299e+00  0.000000e+00
   endloop
 endfacet
 facet normal -5.193173e-01  8.545815e-01  0.000000e+00
   outer loop
     vertex  7.474947e-01  8.300118e-01  0.000000e+00
     vertex  7.474947e-01  8.300118e-01  5.000000e+01
     vertex  9.239490e-01  9.372406e-01  0.000000e+00
   endloop
 endfacet
 facet normal -5.584235e-01  8.295560e-01  0.000000e+00
   outer loop
     vertex  5.941230e-01  7.267682e-01  0.000000e+00
     vertex  7.474947e-01  8.300118e-01  5.000000e+01
     vertex  7.474947e-01  8.300118e-01  0.000000e+00
   endloop
 endfacet
 facet normal -5.584235e-01  8.295560e-01  0.000000e+00
   outer loop
     vertex  5.941230e-01  7.267682e-01  0.000000e+00
     vertex  5.941230e-01  7.267682e-01  5.000000e+01
     vertex  7.474947e-01  8.300118e-01  5.000000e+01
   endloop
 endfacet
 facet normal -5.973583e-01  8.019745e-01  0.000000e+00
   outer loop
     vertex  5.941230e-01  7.267682e-01  0.000000e+00
     vertex  4.617344e-01  6.281573e-01  5.000000e+01
     vertex  5.941230e-01  7.267682e-01  5.000000e+01
   endloop
 endfacet
 facet normal -5.973583e-01  8.019745e-01  0.000000e+00
   outer loop
     vertex  4.617344e-01  6.281573e-01  0.000000e+00
     vertex  4.617344e-01  6.281573e-01  5.000000e+01
     vertex  5.941230e-01  7.267682e-01  0.000000e+00
   endloop
 endfacet
 facet normal -6.347436e-01  7.727228e-01  0.000000e+00
   outer loop
     vertex  3.693107e-01  5.522370e-01  0.000000e+00
     vertex  3.693107e-01  5.522370e-01  5.000000e+01
     vertex  4.617344e-01  6.281573e-01  5.000000e+01
   endloop
 endfacet
 facet normal -6.347436e-01  7.727228e-01  0.000000e+00
   outer loop
     vertex  3.693107e-01  5.522370e-01  0.000000e+00
     vertex  4.617344e-01  6.281573e-01  5.000000e+01
     vertex  4.617344e-01  6.281573e-01  0.000000e+00
   endloop
 endfacet
 facet normal -6.718699e-01  7.406692e-01  0.000000e+00
   outer loop
     vertex  3.693107e-01  5.522370e-01  0.000000e+00
     vertex  3.027320e-01  4.918426e-01  5.000000e+01
     vertex  3.693107e-01  5.522370e-01  5.000000e+01
   endloop
 endfacet
 facet normal -6.718699e-01  7.406692e-01  0.000000e+00
   outer loop
     vertex  3.027320e-01  4.918426e-01  0.000000e+00
     vertex  3.027320e-01  4.918426e-01  5.000000e+01
     vertex  3.693107e-01  5.522370e-01  0.000000e+00
   endloop
 endfacet
 facet normal -7.064536e-01  7.077594e-01  0.000000e+00
   outer loop
     vertex  2.493029e-01  4.385121e-01  0.000000e+00
     vertex  3.027320e-01  4.918426e-01  5.000000e+01
     vertex  3.027320e-01  4.918426e-01  0.000000e+00
   endloop
 endfacet
 facet normal -7.064536e-01  7.077594e-01  0.000000e+00
   outer loop
     vertex  2.493029e-01  4.385121e-01  0.000000e+00
     vertex  2.493029e-01  4.385121e-01  5.000000e+01
     vertex  3.027320e-01  4.918426e-01  5.000000e+01
   endloop
 endfacet
 facet normal -7.388993e-01  6.738158e-01  0.000000e+00
   outer loop
     vertex  2.029775e-01  3.877122e-01  0.000000e+00
     vertex  2.029775e-01  3.877122e-01  5.000000e+01
     vertex  2.493029e-01  4.385121e-01  5.000000e+01
   endloop
 endfacet
 facet normal -7.388993e-01  6.738158e-01  0.000000e+00
   outer loop
     vertex  2.029775e-01  3.877122e-01  0.000000e+00
     vertex  2.493029e-01  4.385121e-01  5.000000e+01
     vertex  2.493029e-01  4.385121e-01  0.000000e+00
   endloop
 endfacet
 facet normal -7.691489e-01  6.390696e-01  0.000000e+00
   outer loop
     vertex  1.628274e-01  3.393898e-01  0.000000e+00
     vertex  1.628274e-01  3.393898e-01  5.000000e+01
     vertex  2.029775e-01  3.877122e-01  5.000000e+01
   endloop
 endfacet
 facet normal -7.964834e-01  6.046604e-01  0.000000e+00
   outer loop
     vertex  1.628274e-01  3.393898e-01  0.000000e+00
     vertex  1.280271e-01  2.935494e-01  5.000000e+01
     vertex  1.628274e-01  3.393898e-01  5.000000e+01
   endloop
 endfacet
 facet normal -7.691489e-01  6.390696e-01  0.000000e+00
   outer loop
     vertex  1.628274e-01  3.393898e-01  0.000000e+00
     vertex  2.029775e-01  3.877122e-01  5.000000e+01
     vertex  2.029775e-01  3.877122e-01  0.000000e+00
   endloop
 endfacet
 facet normal -7.964834e-01  6.046604e-01  0.000000e+00
   outer loop
     vertex  1.280271e-01  2.935494e-01  0.000000e+00
     vertex  1.280271e-01  2.935494e-01  5.000000e+01
     vertex  1.628274e-01  3.393898e-01  0.000000e+00
   endloop
 endfacet
 facet normal -8.222637e-01  5.691067e-01  0.000000e+00
   outer loop
     vertex  9.463514e-02  2.453036e-01  0.000000e+00
     vertex  1.280271e-01  2.935494e-01  5.000000e+01
     vertex  1.280271e-01  2.935494e-01  0.000000e+00
   endloop
 endfacet
 facet normal -8.222637e-01  5.691067e-01  0.000000e+00
   outer loop
     vertex  9.463514e-02  2.453036e-01  0.000000e+00
     vertex  9.463514e-02  2.453036e-01  5.000000e+01
     vertex  1.280271e-01  2.935494e-01  5.000000e+01
   endloop
 endfacet
 facet normal -8.475008e-01  5.307942e-01  0.000000e+00
   outer loop
     vertex  7.174988e-02  2.087634e-01  0.000000e+00
     vertex  9.463514e-02  2.453036e-01  5.000000e+01
     vertex  9.463514e-02  2.453036e-01  0.000000e+00
   endloop
 endfacet
 facet normal -8.475008e-01  5.307942e-01  0.000000e+00
   outer loop
     vertex  7.174988e-02  2.087634e-01  0.000000e+00
     vertex  7.174988e-02  2.087634e-01  5.000000e+01
     vertex  9.463514e-02  2.453036e-01  5.000000e+01
   endloop
 endfacet
 facet normal -8.706356e-01  4.919286e-01  0.000000e+00
   outer loop
     vertex  7.174988e-02  2.087634e-01  0.000000e+00
     vertex  5.415591e-02  1.776249e-01  5.000000e+01
     vertex  7.174988e-02  2.087634e-01  5.000000e+01
   endloop
 endfacet
 facet normal -8.706356e-01  4.919286e-01  0.000000e+00
   outer loop
     vertex  5.415591e-02  1.776249e-01  0.000000e+00
     vertex  5.415591e-02  1.776249e-01  5.000000e+01
     vertex  7.174988e-02  2.087634e-01  0.000000e+00
   endloop
 endfacet
 facet normal -8.920018e-01  4.520318e-01  0.000000e+00
   outer loop
     vertex  4.081838e-02  1.513057e-01  0.000000e+00
     vertex  4.081838e-02  1.513057e-01  5.000000e+01
     vertex  5.415591e-02  1.776249e-01  5.000000e+01
   endloop
 endfacet
 facet normal -8.920018e-01  4.520318e-01  0.000000e+00
   outer loop
     vertex  4.081838e-02  1.513057e-01  0.000000e+00
     vertex  5.415591e-02  1.776249e-01  5.000000e+01
     vertex  5.415591e-02  1.776249e-01  0.000000e+00
   endloop
 endfacet
 facet normal -9.116309e-01  4.110099e-01  0.000000e+00
   outer loop
     vertex  3.004129e-02  1.274019e-01  0.000000e+00
     vertex  3.004129e-02  1.274019e-01  5.000000e+01
     vertex  4.081838e-02  1.513057e-01  5.000000e+01
   endloop
 endfacet
 facet normal -9.297965e-01  3.680739e-01  0.000000e+00
   outer loop
     vertex  3.004129e-02  1.274019e-01  0.000000e+00
     vertex  2.147538e-02  1.057634e-01  5.000000e+01
     vertex  3.004129e-02  1.274019e-01  5.000000e+01
   endloop
 endfacet
 facet normal -9.116309e-01  4.110099e-01  0.000000e+00
   outer loop
     vertex  3.004129e-02  1.274019e-01  0.000000e+00
     vertex  4.081838e-02  1.513057e-01  5.000000e+01
     vertex  4.081838e-02  1.513057e-01  0.000000e+00
   endloop
 endfacet
 facet normal -9.297965e-01  3.680739e-01  0.000000e+00
   outer loop
     vertex  2.147538e-02  1.057634e-01  0.000000e+00
     vertex  2.147538e-02  1.057634e-01  5.000000e+01
     vertex  3.004129e-02  1.274019e-01  0.000000e+00
   endloop
 endfacet
 facet normal -9.460921e-01  3.238978e-01  0.000000e+00
   outer loop
     vertex  1.478612e-02  8.622435e-02  0.000000e+00
     vertex  1.478612e-02  8.622435e-02  5.000000e+01
     vertex  2.147538e-02  1.057634e-01  5.000000e+01
   endloop
 endfacet
 facet normal -9.460921e-01  3.238978e-01  0.000000e+00
   outer loop
     vertex  1.478612e-02  8.622435e-02  0.000000e+00
     vertex  2.147538e-02  1.057634e-01  5.000000e+01
     vertex  2.147538e-02  1.057634e-01  0.000000e+00
   endloop
 endfacet
 facet normal -9.602435e-01  2.791639e-01  0.000000e+00
   outer loop
     vertex  9.666361e-03  6.861384e-02  0.000000e+00
     vertex  9.666361e-03  6.861384e-02  5.000000e+01
     vertex  1.478612e-02  8.622435e-02  5.000000e+01
   endloop
 endfacet
 facet normal -9.733334e-01  2.293951e-01  0.000000e+00
   outer loop
     vertex  9.666361e-03  6.861384e-02  0.000000e+00
     vertex  5.078339e-03  4.914666e-02  5.000000e+01
     vertex  9.666361e-03  6.861384e-02  5.000000e+01
   endloop
 endfacet
 facet normal -9.602435e-01  2.791639e-01  0.000000e+00
   outer loop
     vertex  9.666361e-03  6.861384e-02  0.000000e+00
     vertex  1.478612e-02  8.622435e-02  5.000000e+01
     vertex  1.478612e-02  8.622435e-02  0.000000e+00
   endloop
 endfacet
 facet normal -9.733334e-01  2.293951e-01  0.000000e+00
   outer loop
     vertex  5.078339e-03  4.914666e-02  0.000000e+00
     vertex  5.078339e-03  4.914666e-02  5.000000e+01
     vertex  9.666361e-03  6.861384e-02  0.000000e+00
   endloop
 endfacet
 facet normal -9.849991e-01  1.725592e-01  0.000000e+00
   outer loop
     vertex  1.808625e-03  3.048255e-02  0.000000e+00
     vertex  1.808625e-03  3.048255e-02  5.000000e+01
     vertex  5.078339e-03  4.914666e-02  5.000000e+01
   endloop
 endfacet
 facet normal -9.849991e-01  1.725592e-01  0.000000e+00
   outer loop
     vertex  1.808625e-03  3.048255e-02  0.000000e+00
     vertex  5.078339e-03  4.914666e-02  5.000000e+01
     vertex  5.078339e-03  4.914666e-02  0.000000e+00
   endloop
 endfacet
 facet normal -9.936747e-01  1.122973e-01  0.000000e+00
   outer loop
     vertex -2.177137e-04  1.255227e-02  0.000000e+00
     vertex -2.177137e-04  1.255227e-02  5.000000e+01
     vertex  1.808625e-03  3.048255e-02  5.000000e+01
   endloop
 endfacet
 facet normal -9.936747e-01  1.122973e-01  0.000000e+00
   outer loop
     vertex -2.177137e-04  1.255227e-02  0.000000e+00
     vertex  1.808625e-03  3.048255e-02  5.000000e+01
     vertex  1.808625e-03  3.048255e-02  0.000000e+00
   endloop
 endfacet
 facet normal -9.988009e-01  4.895732e-02  0.000000e+00
   outer loop
     vertex -1.063762e-03 -4.708342e-03  0.000000e+00
     vertex -1.063762e-03 -4.708342e-03  5.000000e+01
     vertex -2.177137e-04  1.255227e-02  5.000000e+01
   endloop
 endfacet
 facet normal -9.988009e-01  4.895732e-02  0.000000e+00
   outer loop
     vertex -1.063762e-03 -4.708342e-03  0.000000e+00
     vertex -2.177137e-04  1.255227e-02  5.000000e+01
     vertex -2.177137e-04  1.255227e-02  0.000000e+00
   endloop
 endfacet
 facet normal -9.998560e-01 -1.697086e-02  0.000000e+00
   outer loop
     vertex -7.811380e-04 -2.135941e-02  0.000000e+00
     vertex -7.811380e-04 -2.135941e-02  5.000000e+01
     vertex -1.063762e-03 -4.708342e-03  5.000000e+01
   endloop
 endfacet
 facet normal -9.963966e-01 -8.481613e-02  0.000000e+00
   outer loop
     vertex -7.811380e-04 -2.135941e-02  0.000000e+00
     vertex  5.891852e-04 -3.745759e-02  5.000000e+01
     vertex -7.811380e-04 -2.135941e-02  5.000000e+01
   endloop
 endfacet
 facet normal -9.998560e-01 -1.697086e-02  0.000000e+00
   outer loop
     vertex -7.811380e-04 -2.135941e-02  0.000000e+00
     vertex -1.063762e-03 -4.708342e-03  5.000000e+01
     vertex -1.063762e-03 -4.708342e-03  0.000000e+00
   endloop
 endfacet
 facet normal -9.963966e-01 -8.481613e-02  0.000000e+00
   outer loop
     vertex  5.891852e-04 -3.745759e-02  0.000000e+00
     vertex  5.891852e-04 -3.745759e-02  5.000000e+01
     vertex -7.811380e-04 -2.135941e-02  0.000000e+00
   endloop
 endfacet
 facet normal -9.883781e-01 -1.520157e-01  0.000000e+00
   outer loop
     vertex  3.027197e-03 -5.330910e-02  0.000000e+00
     vertex  3.027197e-03 -5.330910e-02  5.000000e+01
     vertex  5.891852e-04 -3.745759e-02  5.000000e+01
   endloop
 endfacet
 facet normal -9.883781e-01 -1.520157e-01  0.000000e+00
   outer loop
     vertex  3.027197e-03 -5.330910e-02  0.000000e+00
     vertex  5.891852e-04 -3.745759e-02  5.000000e+01
     vertex  5.891852e-04 -3.745759e-02  0.000000e+00
   endloop
 endfacet
 facet normal -9.764119e-01 -2.159161e-01  0.000000e+00
   outer loop
     vertex  6.593448e-03 -6.943633e-02  0.000000e+00
     vertex  6.593448e-03 -6.943633e-02  5.000000e+01
     vertex  3.027197e-03 -5.330910e-02  5.000000e+01
   endloop
 endfacet
 facet normal -9.764119e-01 -2.159161e-01  0.000000e+00
   outer loop
     vertex  6.593448e-03 -6.943633e-02  0.000000e+00
     vertex  3.027197e-03 -5.330910e-02  5.000000e+01
     vertex  3.027197e-03 -5.330910e-02  0.000000e+00
   endloop
 endfacet
 facet normal -9.609498e-01 -2.767229e-01  0.000000e+00
   outer loop
     vertex  1.132915e-02 -8.588158e-02  0.000000e+00
     vertex  1.132915e-02 -8.588158e-02  5.000000e+01
     vertex  6.593448e-03 -6.943633e-02  5.000000e+01
   endloop
 endfacet
 facet normal -9.609498e-01 -2.767229e-01  0.000000e+00
   outer loop
     vertex  1.132915e-02 -8.588158e-02  0.000000e+00
     vertex  6.593448e-03 -6.943633e-02  5.000000e+01
     vertex  6.593448e-03 -6.943633e-02  0.000000e+00
   endloop
 endfacet
 facet normal -9.425564e-01 -3.340470e-01  0.000000e+00
   outer loop
     vertex  1.728526e-02 -1.026875e-01  0.000000e+00
     vertex  1.728526e-02 -1.026875e-01  5.000000e+01
     vertex  1.132915e-02 -8.588158e-02  5.000000e+01
   endloop
 endfacet
 facet normal -9.218129e-01 -3.876352e-01  0.000000e+00
   outer loop
     vertex  1.728526e-02 -1.026875e-01  0.000000e+00
     vertex  2.452225e-02 -1.198974e-01  5.000000e+01
     vertex  1.728526e-02 -1.026875e-01  5.000000e+01
   endloop
 endfacet
 facet normal -9.425564e-01 -3.340470e-01  0.000000e+00
   outer loop
     vertex  1.728526e-02 -1.026875e-01  0.000000e+00
     vertex  1.132915e-02 -8.588158e-02  5.000000e+01
     vertex  1.132915e-02 -8.588158e-02  0.000000e+00
   endloop
 endfacet
 facet normal -9.218129e-01 -3.876352e-01  0.000000e+00
   outer loop
     vertex  2.452225e-02 -1.198974e-01  0.000000e+00
     vertex  2.452225e-02 -1.198974e-01  5.000000e+01
     vertex  1.728526e-02 -1.026875e-01  0.000000e+00
   endloop
 endfacet
 facet normal -8.992876e-01 -4.373577e-01  0.000000e+00
   outer loop
     vertex  3.311009e-02 -1.375555e-01  0.000000e+00
     vertex  3.311009e-02 -1.375555e-01  5.000000e+01
     vertex  2.452225e-02 -1.198974e-01  5.000000e+01
   endloop
 endfacet
 facet normal -8.757051e-01 -4.828464e-01  0.000000e+00
   outer loop
     vertex  3.311009e-02 -1.375555e-01  0.000000e+00
     vertex  4.296157e-02 -1.554225e-01  5.000000e+01
     vertex  3.311009e-02 -1.375555e-01  5.000000e+01
   endloop
 endfacet
 facet normal -8.992876e-01 -4.373577e-01  0.000000e+00
   outer loop
     vertex  3.311009e-02 -1.375555e-01  0.000000e+00
     vertex  2.452225e-02 -1.198974e-01  5.000000e+01
     vertex  2.452225e-02 -1.198974e-01  0.000000e+00
   endloop
 endfacet
 facet normal -8.757051e-01 -4.828464e-01  0.000000e+00
   outer loop
     vertex  4.296157e-02 -1.554225e-01  0.000000e+00
     vertex  4.296157e-02 -1.554225e-01  5.000000e+01
     vertex  3.311009e-02 -1.375555e-01  0.000000e+00
   endloop
 endfacet
 facet normal -8.506926e-01 -5.256636e-01  0.000000e+00
   outer loop
     vertex  5.514331e-02 -1.751365e-01  0.000000e+00
     vertex  5.514331e-02 -1.751365e-01  5.000000e+01
     vertex  4.296157e-02 -1.554225e-01  5.000000e+01
   endloop
 endfacet
 facet normal -8.237522e-01 -5.669500e-01  0.000000e+00
   outer loop
     vertex  5.514331e-02 -1.751365e-01  0.000000e+00
     vertex  6.996431e-02 -1.966707e-01  5.000000e+01
     vertex  5.514331e-02 -1.751365e-01  5.000000e+01
   endloop
 endfacet
 facet normal -8.506926e-01 -5.256636e-01  0.000000e+00
   outer loop
     vertex  5.514331e-02 -1.751365e-01  0.000000e+00
     vertex  4.296157e-02 -1.554225e-01  5.000000e+01
     vertex  4.296157e-02 -1.554225e-01  0.000000e+00
   endloop
 endfacet
 facet normal -8.237522e-01 -5.669500e-01  0.000000e+00
   outer loop
     vertex  6.996431e-02 -1.966707e-01  0.000000e+00
     vertex  6.996431e-02 -1.966707e-01  5.000000e+01
     vertex  5.514331e-02 -1.751365e-01  0.000000e+00
   endloop
 endfacet
 facet normal -7.955490e-01 -6.058893e-01  0.000000e+00
   outer loop
     vertex  8.781875e-02 -2.201140e-01  0.000000e+00
     vertex  8.781875e-02 -2.201140e-01  5.000000e+01
     vertex  6.996431e-02 -1.966707e-01  5.000000e+01
   endloop
 endfacet
 facet normal -7.955490e-01 -6.058893e-01  0.000000e+00
   outer loop
     vertex  8.781875e-02 -2.201140e-01  0.000000e+00
     vertex  6.996431e-02 -1.966707e-01  5.000000e+01
     vertex  6.996431e-02 -1.966707e-01  0.000000e+00
   endloop
 endfacet
 facet normal -7.682046e-01 -6.402044e-01  0.000000e+00
   outer loop
     vertex  1.069069e-01 -2.430186e-01  0.000000e+00
     vertex  8.781875e-02 -2.201140e-01  5.000000e+01
     vertex  8.781875e-02 -2.201140e-01  0.000000e+00
   endloop
 endfacet
 facet normal -7.682046e-01 -6.402044e-01  0.000000e+00
   outer loop
     vertex  1.069069e-01 -2.430186e-01  0.000000e+00
     vertex  1.069069e-01 -2.430186e-01  5.000000e+01
     vertex  8.781875e-02 -2.201140e-01  5.000000e+01
   endloop
 endfacet
 facet normal -7.384048e-01 -6.743577e-01  0.000000e+00
   outer loop
     vertex  1.364651e-01 -2.753840e-01  0.000000e+00
     vertex  1.069069e-01 -2.430186e-01  5.000000e+01
     vertex  1.069069e-01 -2.430186e-01  0.000000e+00
   endloop
 endfacet
 facet normal -7.384048e-01 -6.743577e-01  0.000000e+00
   outer loop
     vertex  1.364651e-01 -2.753840e-01  0.000000e+00
     vertex  1.364651e-01 -2.753840e-01  5.000000e+01
     vertex  1.069069e-01 -2.430186e-01  5.000000e+01
   endloop
 endfacet
 facet normal -7.052431e-01 -7.089656e-01  0.000000e+00
   outer loop
     vertex  1.364651e-01 -2.753840e-01  0.000000e+00
     vertex  1.748109e-01 -3.135285e-01  5.000000e+01
     vertex  1.364651e-01 -2.753840e-01  5.000000e+01
   endloop
 endfacet
 facet normal -7.052431e-01 -7.089656e-01  0.000000e+00
   outer loop
     vertex  1.748109e-01 -3.135285e-01  0.000000e+00
     vertex  1.748109e-01 -3.135285e-01  5.000000e+01
     vertex  1.364651e-01 -2.753840e-01  0.000000e+00
   endloop
 endfacet
 facet normal -6.743406e-01 -7.384204e-01  0.000000e+00
   outer loop
     vertex  2.184883e-01 -3.534156e-01  0.000000e+00
     vertex  1.748109e-01 -3.135285e-01  5.000000e+01
     vertex  1.748109e-01 -3.135285e-01  0.000000e+00
   endloop
 endfacet
 facet normal -6.743406e-01 -7.384204e-01  0.000000e+00
   outer loop
     vertex  2.184883e-01 -3.534156e-01  0.000000e+00
     vertex  2.184883e-01 -3.534156e-01  5.000000e+01
     vertex  1.748109e-01 -3.135285e-01  5.000000e+01
   endloop
 endfacet
 facet normal -6.417294e-01 -7.669312e-01  0.000000e+00
   outer loop
     vertex  2.700409e-01 -3.965523e-01  0.000000e+00
     vertex  2.700409e-01 -3.965523e-01  5.000000e+01
     vertex  2.184883e-01 -3.534156e-01  5.000000e+01
   endloop
 endfacet
 facet normal -6.053577e-01 -7.959535e-01  0.000000e+00
   outer loop
     vertex  2.700409e-01 -3.965523e-01  0.000000e+00
     vertex  3.301066e-01 -4.422349e-01  5.000000e+01
     vertex  2.700409e-01 -3.965523e-01  5.000000e+01
   endloop
 endfacet
 facet normal -6.417294e-01 -7.669312e-01  0.000000e+00
   outer loop
     vertex  2.700409e-01 -3.965523e-01  0.000000e+00
     vertex  2.184883e-01 -3.534156e-01  5.000000e+01
     vertex  2.184883e-01 -3.534156e-01  0.000000e+00
   endloop
 endfacet
 facet normal -6.053577e-01 -7.959535e-01  0.000000e+00
   outer loop
     vertex  3.301066e-01 -4.422349e-01  0.000000e+00
     vertex  3.301066e-01 -4.422349e-01  5.000000e+01
     vertex  2.700409e-01 -3.965523e-01  0.000000e+00
   endloop
 endfacet
 facet normal -5.674457e-01 -8.234108e-01  0.000000e+00
   outer loop
     vertex  3.970714e-01 -4.883830e-01  0.000000e+00
     vertex  3.301066e-01 -4.422349e-01  5.000000e+01
     vertex  3.301066e-01 -4.422349e-01  0.000000e+00
   endloop
 endfacet
 facet normal -5.674457e-01 -8.234108e-01  0.000000e+00
   outer loop
     vertex  3.970714e-01 -4.883830e-01  0.000000e+00
     vertex  3.970714e-01 -4.883830e-01  5.000000e+01
     vertex  3.301066e-01 -4.422349e-01  5.000000e+01
   endloop
 endfacet
 facet normal -5.318112e-01 -8.468629e-01  0.000000e+00
   outer loop
     vertex  3.970714e-01 -4.883830e-01  0.000000e+00
     vertex  4.672425e-01 -5.324489e-01  5.000000e+01
     vertex  3.970714e-01 -4.883830e-01  5.000000e+01
   endloop
 endfacet
 facet normal -5.017778e-01 -8.649966e-01  0.000000e+00
   outer loop
     vertex  4.672425e-01 -5.324489e-01  0.000000e+00
     vertex  5.385810e-01 -5.738318e-01  5.000000e+01
     vertex  4.672425e-01 -5.324489e-01  5.000000e+01
   endloop
 endfacet
 facet normal -5.318112e-01 -8.468629e-01  0.000000e+00
   outer loop
     vertex  4.672425e-01 -5.324489e-01  0.000000e+00
     vertex  4.672425e-01 -5.324489e-01  5.000000e+01
     vertex  3.970714e-01 -4.883830e-01  0.000000e+00
   endloop
 endfacet
 facet normal -5.017778e-01 -8.649966e-01  0.000000e+00
   outer loop
     vertex  5.385810e-01 -5.738318e-01  0.000000e+00
     vertex  5.385810e-01 -5.738318e-01  5.000000e+01
     vertex  4.672425e-01 -5.324489e-01  0.000000e+00
   endloop
 endfacet
 facet normal -4.661650e-01 -8.846978e-01  0.000000e+00
   outer loop
     vertex  7.428468e-01 -6.814636e-01  0.000000e+00
     vertex  5.385810e-01 -5.738318e-01  5.000000e+01
     vertex  5.385810e-01 -5.738318e-01  0.000000e+00
   endloop
 endfacet
 facet normal -4.661650e-01 -8.846978e-01  0.000000e+00
   outer loop
     vertex  7.428468e-01 -6.814636e-01  0.000000e+00
     vertex  7.428468e-01 -6.814636e-01  5.000000e+01
     vertex  5.385810e-01 -5.738318e-01  5.000000e+01
   endloop
 endfacet
 facet normal -4.332549e-01 -9.012714e-01  0.000000e+00
   outer loop
     vertex  7.428468e-01 -6.814636e-01  0.000000e+00
     vertex  9.530979e-01 -7.825345e-01  5.000000e+01
     vertex  7.428468e-01 -6.814636e-01  5.000000e+01
   endloop
 endfacet
 facet normal -4.332549e-01 -9.012714e-01  0.000000e+00
   outer loop
     vertex  9.530979e-01 -7.825345e-01  0.000000e+00
     vertex  9.530979e-01 -7.825345e-01  5.000000e+01
     vertex  7.428468e-01 -6.814636e-01  0.000000e+00
   endloop
 endfacet
 facet normal -4.016177e-01 -9.158074e-01  0.000000e+00
   outer loop
     vertex  1.184058e+00 -8.838195e-01  0.000000e+00
     vertex  9.530979e-01 -7.825345e-01  5.000000e+01
     vertex  9.530979e-01 -7.825345e-01  0.000000e+00
   endloop
 endfacet
 facet normal -4.016177e-01 -9.158074e-01  0.000000e+00
   outer loop
     vertex  1.184058e+00 -8.838195e-01  0.000000e+00
     vertex  1.184058e+00 -8.838195e-01  5.000000e+01
     vertex  9.530979e-01 -7.825345e-01  5.000000e+01
   endloop
 endfacet
 facet normal -3.690683e-01 -9.294023e-01  0.000000e+00
   outer loop
     vertex  1.423932e+00 -9.790741e-01  0.000000e+00
     vertex  1.184058e+00 -8.838195e-01  5.000000e+01
     vertex  1.184058e+00 -8.838195e-01  0.000000e+00
   endloop
 endfacet
 facet normal -3.690683e-01 -9.294023e-01  0.000000e+00
   outer loop
     vertex  1.423932e+00 -9.790741e-01  0.000000e+00
     vertex  1.423932e+00 -9.790741e-01  5.000000e+01
     vertex  1.184058e+00 -8.838195e-01  5.000000e+01
   endloop
 endfacet
 facet normal -3.390402e-01 -9.407719e-01  0.000000e+00
   outer loop
     vertex  1.644123e+00 -1.058428e+00  0.000000e+00
     vertex  1.644123e+00 -1.058428e+00  5.000000e+01
     vertex  1.423932e+00 -9.790741e-01  5.000000e+01
   endloop
 endfacet
 facet normal -3.100025e-01 -9.507357e-01  0.000000e+00
   outer loop
     vertex  1.644123e+00 -1.058428e+00  0.000000e+00
     vertex  1.940277e+00 -1.154994e+00  5.000000e+01
     vertex  1.644123e+00 -1.058428e+00  5.000000e+01
   endloop
 endfacet
 facet normal -3.390402e-01 -9.407719e-01  0.000000e+00
   outer loop
     vertex  1.644123e+00 -1.058428e+00  0.000000e+00
     vertex  1.423932e+00 -9.790741e-01  5.000000e+01
     vertex  1.423932e+00 -9.790741e-01  0.000000e+00
   endloop
 endfacet
 facet normal -3.100025e-01 -9.507357e-01  0.000000e+00
   outer loop
     vertex  1.940277e+00 -1.154994e+00  0.000000e+00
     vertex  1.940277e+00 -1.154994e+00  5.000000e+01
     vertex  1.644123e+00 -1.058428e+00  0.000000e+00
   endloop
 endfacet
 facet normal -2.813188e-01 -9.596144e-01  0.000000e+00
   outer loop
     vertex  2.276371e+00 -1.253522e+00  0.000000e+00
     vertex  1.940277e+00 -1.154994e+00  5.000000e+01
     vertex  1.940277e+00 -1.154994e+00  0.000000e+00
   endloop
 endfacet
 facet normal -2.813188e-01 -9.596144e-01  0.000000e+00
   outer loop
     vertex  2.276371e+00 -1.253522e+00  0.000000e+00
     vertex  2.276371e+00 -1.253522e+00  5.000000e+01
     vertex  1.940277e+00 -1.154994e+00  5.000000e+01
   endloop
 endfacet
 facet normal -2.544686e-01 -9.670810e-01  0.000000e+00
   outer loop
     vertex  2.728233e+00 -1.372421e+00  0.000000e+00
     vertex  2.276371e+00 -1.253522e+00  5.000000e+01
     vertex  2.276371e+00 -1.253522e+00  0.000000e+00
   endloop
 endfacet
 facet normal -2.544686e-01 -9.670810e-01  0.000000e+00
   outer loop
     vertex  2.728233e+00 -1.372421e+00  0.000000e+00
     vertex  2.728233e+00 -1.372421e+00  5.000000e+01
     vertex  2.276371e+00 -1.253522e+00  5.000000e+01
   endloop
 endfacet
 facet normal -2.260590e-01 -9.741136e-01  0.000000e+00
   outer loop
     vertex  3.240558e+00 -1.491314e+00  0.000000e+00
     vertex  3.240558e+00 -1.491314e+00  5.000000e+01
     vertex  2.728233e+00 -1.372421e+00  5.000000e+01
   endloop
 endfacet
 facet normal -2.260590e-01 -9.741136e-01  0.000000e+00
   outer loop
     vertex  3.240558e+00 -1.491314e+00  0.000000e+00
     vertex  2.728233e+00 -1.372421e+00  5.000000e+01
     vertex  2.728233e+00 -1.372421e+00  0.000000e+00
   endloop
 endfacet
 facet normal -1.952800e-01 -9.807475e-01  0.000000e+00
   outer loop
     vertex  3.928217e+00 -1.628236e+00  0.000000e+00
     vertex  3.240558e+00 -1.491314e+00  5.000000e+01
     vertex  3.240558e+00 -1.491314e+00  0.000000e+00
   endloop
 endfacet
 facet normal -1.952800e-01 -9.807475e-01  0.000000e+00
   outer loop
     vertex  3.928217e+00 -1.628236e+00  0.000000e+00
     vertex  3.928217e+00 -1.628236e+00  5.000000e+01
     vertex  3.240558e+00 -1.491314e+00  5.000000e+01
   endloop
 endfacet
 facet normal -1.638076e-01 -9.864923e-01  0.000000e+00
   outer loop
     vertex  3.928217e+00 -1.628236e+00  0.000000e+00
     vertex  4.706215e+00 -1.757424e+00  5.000000e+01
     vertex  3.928217e+00 -1.628236e+00  5.000000e+01
   endloop
 endfacet
 facet normal -1.638076e-01 -9.864923e-01  0.000000e+00
   outer loop
     vertex  4.706215e+00 -1.757424e+00  0.000000e+00
     vertex  4.706215e+00 -1.757424e+00  5.000000e+01
     vertex  3.928217e+00 -1.628236e+00  0.000000e+00
   endloop
 endfacet
 facet normal -1.330755e-01 -9.911059e-01  0.000000e+00
   outer loop
     vertex  5.748389e+00 -1.897356e+00  0.000000e+00
     vertex  4.706215e+00 -1.757424e+00  5.000000e+01
     vertex  4.706215e+00 -1.757424e+00  0.000000e+00
   endloop
 endfacet
 facet normal -1.330755e-01 -9.911059e-01  0.000000e+00
   outer loop
     vertex  5.748389e+00 -1.897356e+00  0.000000e+00
     vertex  5.748389e+00 -1.897356e+00  5.000000e+01
     vertex  4.706215e+00 -1.757424e+00  5.000000e+01
   endloop
 endfacet
 facet normal -1.025148e-01 -9.947315e-01  0.000000e+00
   outer loop
     vertex  5.748389e+00 -1.897356e+00  0.000000e+00
     vertex  6.925129e+00 -2.018628e+00  5.000000e+01
     vertex  5.748389e+00 -1.897356e+00  5.000000e+01
   endloop
 endfacet
 facet normal -1.025148e-01 -9.947315e-01  0.000000e+00
   outer loop
     vertex  6.925129e+00 -2.018628e+00  0.000000e+00
     vertex  6.925129e+00 -2.018628e+00  5.000000e+01
     vertex  5.748389e+00 -1.897356e+00  0.000000e+00
   endloop
 endfacet
 facet normal -7.309535e-02 -9.973250e-01  0.000000e+00
   outer loop
     vertex  8.498169e+00 -2.133918e+00  0.000000e+00
     vertex  6.925129e+00 -2.018628e+00  5.000000e+01
     vertex  6.925129e+00 -2.018628e+00  0.000000e+00
   endloop
 endfacet
 facet normal -7.309535e-02 -9.973250e-01  0.000000e+00
   outer loop
     vertex  8.498169e+00 -2.133918e+00  0.000000e+00
     vertex  8.498169e+00 -2.133918e+00  5.000000e+01
     vertex  6.925129e+00 -2.018628e+00  5.000000e+01
   endloop
 endfacet
 facet normal -4.255166e-02 -9.990943e-01  0.000000e+00
   outer loop
     vertex  8.498169e+00 -2.133918e+00  0.000000e+00
     vertex  1.086184e+01 -2.234588e+00  5.000000e+01
     vertex  8.498169e+00 -2.133918e+00  5.000000e+01
   endloop
 endfacet
 facet normal -4.255166e-02 -9.990943e-01  0.000000e+00
   outer loop
     vertex  1.086184e+01 -2.234588e+00  0.000000e+00
     vertex  1.086184e+01 -2.234588e+00  5.000000e+01
     vertex  8.498169e+00 -2.133918e+00  0.000000e+00
   endloop
 endfacet
 facet normal -1.097449e-02 -9.999398e-01  0.000000e+00
   outer loop
     vertex  1.441032e+01 -2.273533e+00  0.000000e+00
     vertex  1.086184e+01 -2.234588e+00  5.000000e+01
     vertex  1.086184e+01 -2.234588e+00  0.000000e+00
   endloop
 endfacet
 facet normal -1.097449e-02 -9.999398e-01  0.000000e+00
   outer loop
     vertex  1.441032e+01 -2.273533e+00  0.000000e+00
     vertex  1.441032e+01 -2.273533e+00  5.000000e+01
     vertex  1.086184e+01 -2.234588e+00  5.000000e+01
   endloop
 endfacet
 facet normal  2.400723e-02 -9.997118e-01  0.000000e+00
   outer loop
     vertex  2.216043e+01 -2.087421e+00  0.000000e+00
     vertex  1.441032e+01 -2.273533e+00  5.000000e+01
     vertex  1.441032e+01 -2.273533e+00  0.000000e+00
   endloop
 endfacet
 facet normal  2.400723e-02 -9.997118e-01  0.000000e+00
   outer loop
     vertex  2.216043e+01 -2.087421e+00  0.000000e+00
     vertex  2.216043e+01 -2.087421e+00  5.000000e+01
     vertex  1.441032e+01 -2.273533e+00  5.000000e+01
   endloop
 endfacet
 facet normal  5.228647e-02 -9.986321e-01  0.000000e+00
   outer loop
     vertex  3.222220e+01 -1.560605e+00  0.000000e+00
     vertex  2.216043e+01 -2.087421e+00  5.000000e+01
     vertex  2.216043e+01 -2.087421e+00  0.000000e+00
   endloop
 endfacet
 facet normal  5.228647e-02 -9.986321e-01  0.000000e+00
   outer loop
     vertex  3.222220e+01 -1.560605e+00  0.000000e+00
     vertex  3.222220e+01 -1.560605e+00  5.000000e+01
     vertex  2.216043e+01 -2.087421e+00  5.000000e+01
   endloop
 endfacet
 facet normal  6.651551e-02 -9.977854e-01  0.000000e+00
   outer loop
     vertex  3.222220e+01 -1.560605e+00  0.000000e+00
     vertex  4.518314e+01 -6.965884e-01  5.000000e+01
     vertex  3.222220e+01 -1.560605e+00  5.000000e+01
   endloop
 endfacet
 facet normal  6.651551e-02 -9.977854e-01  0.000000e+00
   outer loop
     vertex  4.518314e+01 -6.965884e-01  0.000000e+00
     vertex  4.518314e+01 -6.965884e-01  5.000000e+01
     vertex  3.222220e+01 -1.560605e+00  0.000000e+00
   endloop
 endfacet
 facet normal  8.001928e-02 -9.967933e-01  0.000000e+00
   outer loop
     vertex  4.518314e+01 -6.965884e-01  0.000000e+00
     vertex  4.821903e+01 -4.528773e-01  5.000000e+01
     vertex  4.518314e+01 -6.965884e-01  5.000000e+01
   endloop
 endfacet
 facet normal  8.001928e-02 -9.967933e-01  0.000000e+00
   outer loop
     vertex  4.821903e+01 -4.528773e-01  0.000000e+00
     vertex  4.821903e+01 -4.528773e-01  5.000000e+01
     vertex  4.518314e+01 -6.965884e-01  0.000000e+00
   endloop
 endfacet
 facet normal  9.881601e-02 -9.951057e-01  0.000000e+00
   outer loop
     vertex  4.901111e+01 -3.742222e-01  0.000000e+00
     vertex  4.821903e+01 -4.528773e-01  5.000000e+01
     vertex  4.821903e+01 -4.528773e-01  0.000000e+00
   endloop
 endfacet
 facet normal  9.881601e-02 -9.951057e-01  0.000000e+00
   outer loop
     vertex  4.901111e+01 -3.742222e-01  0.000000e+00
     vertex  4.901111e+01 -3.742222e-01  5.000000e+01
     vertex  4.821903e+01 -4.528773e-01  5.000000e+01
   endloop
 endfacet
 facet normal  1.271322e-01 -9.918858e-01  0.000000e+00
   outer loop
     vertex  4.901111e+01 -3.742222e-01  0.000000e+00
     vertex  4.935281e+01 -3.304252e-01  5.000000e+01
     vertex  4.901111e+01 -3.742222e-01  5.000000e+01
   endloop
 endfacet
 facet normal  1.271322e-01 -9.918858e-01  0.000000e+00
   outer loop
     vertex  4.935281e+01 -3.304252e-01  0.000000e+00
     vertex  4.935281e+01 -3.304252e-01  5.000000e+01
     vertex  4.901111e+01 -3.742222e-01  0.000000e+00
   endloop
 endfacet
 facet normal  1.548362e-01 -9.879402e-01  0.000000e+00
   outer loop
     vertex  4.969336e+01 -2.770529e-01  0.000000e+00
     vertex  4.935281e+01 -3.304252e-01  5.000000e+01
     vertex  4.935281e+01 -3.304252e-01  0.000000e+00
   endloop
 endfacet
 facet normal  1.548362e-01 -9.879402e-01  0.000000e+00
   outer loop
     vertex  4.969336e+01 -2.770529e-01  0.000000e+00
     vertex  4.969336e+01 -2.770529e-01  5.000000e+01
     vertex  4.935281e+01 -3.304252e-01  5.000000e+01
   endloop
 endfacet
 facet normal  1.307958e-01 -9.914093e-01  0.000000e+00
   outer loop
     vertex  4.976968e+01 -2.669837e-01  0.000000e+00
     vertex  4.969336e+01 -2.770529e-01  5.000000e+01
     vertex  4.969336e+01 -2.770529e-01  0.000000e+00
   endloop
 endfacet
 facet normal  1.307958e-01 -9.914093e-01  0.000000e+00
   outer loop
     vertex  4.976968e+01 -2.669837e-01  0.000000e+00
     vertex  4.976968e+01 -2.669837e-01  5.000000e+01
     vertex  4.969336e+01 -2.770529e-01  5.000000e+01
   endloop
 endfacet
 facet normal  1.057047e-01 -9.943976e-01  0.000000e+00
   outer loop
     vertex  4.976968e+01 -2.669837e-01  0.000000e+00
     vertex  4.984620e+01 -2.588497e-01  5.000000e+01
     vertex  4.976968e+01 -2.669837e-01  5.000000e+01
   endloop
 endfacet
 facet normal  1.057047e-01 -9.943976e-01  0.000000e+00
   outer loop
     vertex  4.984620e+01 -2.588497e-01  0.000000e+00
     vertex  4.984620e+01 -2.588497e-01  5.000000e+01
     vertex  4.976968e+01 -2.669837e-01  0.000000e+00
   endloop
 endfacet
 facet normal  7.416124e-02 -9.972463e-01  0.000000e+00
   outer loop
     vertex  4.992297e+01 -2.531407e-01  0.000000e+00
     vertex  4.984620e+01 -2.588497e-01  5.000000e+01
     vertex  4.984620e+01 -2.588497e-01  0.000000e+00
   endloop
 endfacet
 facet normal  7.416124e-02 -9.972463e-01  0.000000e+00
   outer loop
     vertex  4.992297e+01 -2.531407e-01  0.000000e+00
     vertex  4.992297e+01 -2.531407e-01  5.000000e+01
     vertex  4.984620e+01 -2.588497e-01  5.000000e+01
   endloop
 endfacet
 facet normal  4.073826e-02 -9.991699e-01  0.000000e+00
   outer loop
     vertex  5.000000e+01 -2.500000e-01  0.000000e+00
     vertex  4.992297e+01 -2.531407e-01  5.000000e+01
     vertex  4.992297e+01 -2.531407e-01  0.000000e+00
   endloop
 endfacet
 facet normal  4.073826e-02 -9.991699e-01  0.000000e+00
   outer loop
     vertex  5.000000e+01 -2.500000e-01  0.000000e+00
     vertex  5.000000e+01 -2.500000e-01  5.000000e+01
     vertex  4.992297e+01 -2.531407e-01  5.000000e+01
   endloop
 endfacet
 facet normal  1.000000e+00  0.000000e+00  0.000000e+00
   outer loop
     vertex  5.000000e+01 -2.500000e-01  0.000000e+00
     vertex  5.000000e+01  2.500000e-01  5.000000e+01
     vertex  5.000000e+01 -2.500000e-01  5.000000e+01
   endloop
 endfacet
 facet normal  1.000000e+00  0.000000e+00 -0.000000e+00
   outer loop
     vertex  5.000000e+01  2.500000e-01  0.000000e+00
     vertex  5.000000e+01  2.500000e-01  5.000000e+01
     vertex  5.000000e+01 -2.500000e-01  0.000000e+00
   endloop
 endfacet
 facet normal  0.000000e+00  0.000000e+00 -1.000000e+00
   outer loop
     vertex -7.811380e-04 -2.135941e-02  0.000000e+00
     vertex  3.027197e-03 -5.330910e-02  0.000000e+00
     vertex  5.891852e-04 -3.745759e-02  0.000000e+00
   endloop
 endfacet
 facet normal  0.000000e+00  0.000000e+00 -1.000000e+00
   outer loop
     vertex -1.063762e-03 -4.708342e-03  0.000000e+00
     vertex  3.027197e-03 -5.330910e-02  0.000000e+00
     vertex -7.811380e-04 -2.135941e-02  0.000000e+00
   endloop
 endfacet
 facet normal  0.000000e+00  0.000000e+00 -1.000000e+00
   outer loop
     vertex -1.063762e-03 -4.708342e-03  0.000000e+00
     vertex  6.593448e-03 -6.943633e-02  0.000000e+00
     vertex  3.027197e-03 -5.330910e-02  0.000000e+00
   endloop
 endfacet
 facet normal  0.000000e+00 -0.000000e+00 -1.000000e+00
   outer loop
     vertex -2.177137e-04  1.255227e-02  0.000000e+00
     vertex  6.593448e-03 -6.943633e-02  0.000000e+00
     vertex -1.063762e-03 -4.708342e-03  0.000000e+00
   endloop
 endfacet
 facet normal  0.000000e+00  0.000000e+00 -1.000000e+00
   outer loop
     vertex -2.177137e-04  1.255227e-02  0.000000e+00
     vertex  1.132915e-02 -8.588158e-02  0.000000e+00
     vertex  6.593448e-03 -6.943633e-02  0.000000e+00
   endloop
 endfacet
 facet normal  0.000000e+00 -0.000000e+00 -1.000000e+00
   outer loop
     vertex  1.808625e-03  3.048255e-02  0.000000e+00
     vertex  1.132915e-02 -8.588158e-02  0.000000e+00
     vertex -2.177137e-04  1.255227e-02  0.000000e+00
   endloop
 endfacet
 facet normal  0.000000e+00  0.000000e+00 -1.000000e+00
   outer loop
     vertex  1.808625e-03  3.048255e-02  0.000000e+00
     vertex  1.728526e-02 -1.026875e-01  0.000000e+00
     vertex  1.132915e-02 -8.588158e-02  0.000000e+00
   endloop
 endfacet
 facet normal  0.000000e+00 -0.000000e+00 -1.000000e+00
   outer loop
     vertex  5.078339e-03  4.914666e-02  0.000000e+00
     vertex  1.728526e-02 -1.026875e-01  0.000000e+00
     vertex  1.808625e-03  3.048255e-02  0.000000e+00
   endloop
 endfacet
 facet normal  0.000000e+00  0.000000e+00 -1.000000e+00
   outer loop
     vertex  5.078339e-03  4.914666e-02  0.000000e+00
     vertex  2.452225e-02 -1.198974e-01  0.000000e+00
     vertex  1.728526e-02 -1.026875e-01  0.000000e+00
   endloop
 endfacet
 facet normal  0.000000e+00 -0.000000e+00 -1.000000e+00
   outer loop
     vertex  9.666361e-03  6.861384e-02  0.000000e+00
     vertex  2.452225e-02 -1.198974e-01  0.000000e+00
     vertex  5.078339e-03  4.914666e-02  0.000000e+00
   endloop
 endfacet
 facet normal  0.000000e+00  0.000000e+00 -1.000000e+00
   outer loop
     vertex  9.666361e-03  6.861384e-02  0.000000e+00
     vertex  3.311009e-02 -1.375555e-01  0.000000e+00
     vertex  2.452225e-02 -1.198974e-01  0.000000e+00
   endloop
 endfacet
 facet normal  0.000000e+00 -0.000000e+00 -1.000000e+00
   outer loop
     vertex  1.478612e-02  8.622435e-02  0.000000e+00
     vertex  3.311009e-02 -1.375555e-01  0.000000e+00
     vertex  9.666361e-03  6.861384e-02  0.000000e+00
   endloop
 endfacet
 facet normal  0.000000e+00  0.000000e+00 -1.000000e+00
   outer loop
     vertex  1.478612e-02  8.622435e-02  0.000000e+00
     vertex  4.296157e-02 -1.554225e-01  0.000000e+00
     vertex  3.311009e-02 -1.375555e-01  0.000000e+00
   endloop
 endfacet
 facet normal  0.000000e+00 -0.000000e+00 -1.000000e+00
   outer loop
     vertex  2.147538e-02  1.057634e-01  0.000000e+00
     vertex  4.296157e-02 -1.554225e-01  0.000000e+00
     vertex  1.478612e-02  8.622435e-02  0.000000e+00
   endloop
 endfacet
 facet normal  0.000000e+00  0.000000e+00 -1.000000e+00
   outer loop
     vertex  2.147538e-02  1.057634e-01  0.000000e+00
     vertex  5.514331e-02 -1.751365e-01  0.000000e+00
     vertex  4.296157e-02 -1.554225e-01  0.000000e+00
   endloop
 endfacet
 facet normal  0.000000e+00 -0.000000e+00 -1.000000e+00
   outer loop
     vertex  3.004129e-02  1.274019e-01  0.000000e+00
     vertex  5.514331e-02 -1.751365e-01  0.000000e+00
     vertex  2.147538e-02  1.057634e-01  0.000000e+00
   endloop
 endfacet
 facet normal  0.000000e+00  0.000000e+00 -1.000000e+00
   outer loop
     vertex  3.004129e-02  1.274019e-01  0.000000e+00
     vertex  6.996431e-02 -1.966707e-01  0.000000e+00
     vertex  5.514331e-02 -1.751365e-01  0.000000e+00
   endloop
 endfacet
 facet normal  0.000000e+00 -0.000000e+00 -1.000000e+00
   outer loop
     vertex  4.081838e-02  1.513057e-01  0.000000e+00
     vertex  6.996431e-02 -1.966707e-01  0.000000e+00
     vertex  3.004129e-02  1.274019e-01  0.000000e+00
   endloop
 endfacet
 facet normal  0.000000e+00  0.000000e+00 -1.000000e+00
   outer loop
     vertex  4.081838e-02  1.513057e-01  0.000000e+00
     vertex  8.781875e-02 -2.201140e-01  0.000000e+00
     vertex  6.996431e-02 -1.966707e-01  0.000000e+00
   endloop
 endfacet
 facet normal  0.000000e+00 -0.000000e+00 -1.000000e+00
   outer loop
     vertex  5.415591e-02  1.776249e-01  0.000000e+00
     vertex  8.781875e-02 -2.201140e-01  0.000000e+00
     vertex  4.081838e-02  1.513057e-01  0.000000e+00
   endloop
 endfacet
 facet normal  0.000000e+00  0.000000e+00 -1.000000e+00
   outer loop
     vertex  5.415591e-02  1.776249e-01  0.000000e+00
     vertex  1.069069e-01 -2.430186e-01  0.000000e+00
     vertex  8.781875e-02 -2.201140e-01  0.000000e+00
   endloop
 endfacet
 facet normal  0.000000e+00  0.000000e+00 -1.000000e+00
   outer loop
     vertex  7.174988e-02  2.087634e-01  0.000000e+00
     vertex  1.364651e-01 -2.753840e-01  0.000000e+00
     vertex  1.069069e-01 -2.430186e-01  0.000000e+00
   endloop
 endfacet
 facet normal  0.000000e+00 -0.000000e+00 -1.000000e+00
   outer loop
     vertex  7.174988e-02  2.087634e-01  0.000000e+00
     vertex  1.069069e-01 -2.430186e-01  0.000000e+00
     vertex  5.415591e-02  1.776249e-01  0.000000e+00
   endloop
 endfacet
 facet normal  0.000000e+00 -0.000000e+00 -1.000000e+00
   outer loop
     vertex  9.463514e-02  2.453036e-01  0.000000e+00
     vertex  1.364651e-01 -2.753840e-01  0.000000e+00
     vertex  7.174988e-02  2.087634e-01  0.000000e+00
   endloop
 endfacet
 facet normal  0.000000e+00  0.000000e+00 -1.000000e+00
   outer loop
     vertex  9.463514e-02  2.453036e-01  0.000000e+00
     vertex  1.748109e-01 -3.135285e-01  0.000000e+00
     vertex  1.364651e-01 -2.753840e-01  0.000000e+00
   endloop
 endfacet
 facet normal  0.000000e+00 -0.000000e+00 -1.000000e+00
   outer loop
     vertex  1.280271e-01  2.935494e-01  0.000000e+00
     vertex  1.748109e-01 -3.135285e-01  0.000000e+00
     vertex  9.463514e-02  2.453036e-01  0.000000e+00
   endloop
 endfacet
 facet normal  0.000000e+00  0.000000e+00 -1.000000e+00
   outer loop
     vertex  1.280271e-01  2.935494e-01  0.000000e+00
     vertex  2.184883e-01 -3.534156e-01  0.000000e+00
     vertex  1.748109e-01 -3.135285e-01  0.000000e+00
   endloop
 endfacet
 facet normal  0.000000e+00  0.000000e+00 -1.000000e+00
   outer loop
     vertex  1.628274e-01  3.393898e-01  0.000000e+00
     vertex  2.700409e-01 -3.965523e-01  0.000000e+00
     vertex  2.184883e-01 -3.534156e-01  0.000000e+00
   endloop
 endfacet
 facet normal  0.000000e+00 -0.000000e+00 -1.000000e+00
   outer loop
     vertex  1.628274e-01  3.393898e-01  0.000000e+00
     vertex  2.184883e-01 -3.534156e-01  0.000000e+00
     vertex  1.280271e-01  2.935494e-01  0.000000e+00
   endloop
 endfacet
 facet normal  0.000000e+00  0.000000e+00 -1.000000e+00
   outer loop
     vertex  2.029775e-01  3.877122e-01  0.000000e+00
     vertex  3.301066e-01 -4.422349e-01  0.000000e+00
     vertex  2.700409e-01 -3.965523e-01  0.000000e+00
   endloop
 endfacet
 facet normal  0.000000e+00 -0.000000e+00 -1.000000e+00
   outer loop
     vertex  2.029775e-01  3.877122e-01  0.000000e+00
     vertex  2.700409e-01 -3.965523e-01  0.000000e+00
     vertex  1.628274e-01  3.393898e-01  0.000000e+00
   endloop
 endfacet
 facet normal  0.000000e+00 -0.000000e+00 -1.000000e+00
   outer loop
     vertex  2.493029e-01  4.385121e-01  0.000000e+00
     vertex  3.301066e-01 -4.422349e-01  0.000000e+00
     vertex  2.029775e-01  3.877122e-01  0.000000e+00
   endloop
 endfacet
 facet normal  0.000000e+00  0.000000e+00 -1.000000e+00
   outer loop
     vertex  3.027320e-01  4.918426e-01  0.000000e+00
     vertex  3.970714e-01 -4.883830e-01  0.000000e+00
     vertex  3.301066e-01 -4.422349e-01  0.000000e+00
   endloop
 endfacet
 facet normal  0.000000e+00 -0.000000e+00 -1.000000e+00
   outer loop
     vertex  3.027320e-01  4.918426e-01  0.000000e+00
     vertex  3.301066e-01 -4.422349e-01  0.000000e+00
     vertex  2.493029e-01  4.385121e-01  0.000000e+00
   endloop
 endfacet
 facet normal  0.000000e+00  0.000000e+00 -1.000000e+00
   outer loop
     vertex  3.693107e-01  5.522370e-01  0.000000e+00
     vertex  4.672425e-01 -5.324489e-01  0.000000e+00
     vertex  3.970714e-01 -4.883830e-01  0.000000e+00
   endloop
 endfacet
 facet normal  0.000000e+00  0.000000e+00 -1.000000e+00
   outer loop
     vertex  3.693107e-01  5.522370e-01  0.000000e+00
     vertex  5.385810e-01 -5.738318e-01  0.000000e+00
     vertex  4.672425e-01 -5.324489e-01  0.000000e+00
   endloop
 endfacet
 facet normal  0.000000e+00 -0.000000e+00 -1.000000e+00
   outer loop
     vertex  3.693107e-01  5.522370e-01  0.000000e+00
     vertex  3.970714e-01 -4.883830e-01  0.000000e+00
     vertex  3.027320e-01  4.918426e-01  0.000000e+00
   endloop
 endfacet
 facet normal  0.000000e+00 -0.000000e+00 -1.000000e+00
   outer loop
     vertex  4.617344e-01  6.281573e-01  0.000000e+00
     vertex  5.385810e-01 -5.738318e-01  0.000000e+00
     vertex  3.693107e-01  5.522370e-01  0.000000e+00
   endloop
 endfacet
 facet normal  0.000000e+00 -0.000000e+00 -1.000000e+00
   outer loop
     vertex  5.941230e-01  7.267682e-01  0.000000e+00
     vertex  7.428468e-01 -6.814636e-01  0.000000e+00
     vertex  5.385810e-01 -5.738318e-01  0.000000e+00
   endloop
 endfacet
 facet normal  0.000000e+00  0.000000e+00 -1.000000e+00
   outer loop
     vertex  5.941230e-01  7.267682e-01  0.000000e+00
     vertex  5.385810e-01 -5.738318e-01  0.000000e+00
     vertex  4.617344e-01  6.281573e-01  0.000000e+00
   endloop
 endfacet
 facet normal  0.000000e+00  0.000000e+00 -1.000000e+00
   outer loop
     vertex  7.474947e-01  8.300118e-01  0.000000e+00
     vertex  7.428468e-01 -6.814636e-01  0.000000e+00
     vertex  5.941230e-01  7.267682e-01  0.000000e+00
   endloop
 endfacet
 facet normal  0.000000e+00 -0.000000e+00 -1.000000e+00
   outer loop
     vertex  7.474947e-01  8.300118e-01  0.000000e+00
     vertex  9.530979e-01 -7.825345e-01  0.000000e+00
     vertex  7.428468e-01 -6.814636e-01  0.000000e+00
   endloop
 endfacet
 facet normal  0.000000e+00  0.000000e+00 -1.000000e+00
   outer loop
     vertex  9.239490e-01  9.372406e-01  0.000000e+00
     vertex  1.184058e+00 -8.838195e-01  0.000000e+00
     vertex  9.530979e-01 -7.825345e-01  0.000000e+00
   endloop
 endfacet
 facet normal  0.000000e+00 -0.000000e+00 -1.000000e+00
   outer loop
     vertex  9.239490e-01  9.372406e-01  0.000000e+00
     vertex  9.530979e-01 -7.825345e-01  0.000000e+00
     vertex  7.474947e-01  8.300118e-01  0.000000e+00
   endloop
 endfacet
 facet normal  0.000000e+00 -0.000000e+00 -1.000000e+00
   outer loop
     vertex  1.147738e+00  1.059299e+00  0.000000e+00
     vertex  1.184058e+00 -8.838195e-01  0.000000e+00
     vertex  9.239490e-01  9.372406e-01  0.000000e+00
   endloop
 endfacet
 facet normal  0.000000e+00  0.000000e+00 -1.000000e+00
   outer loop
     vertex  1.147738e+00  1.059299e+00  0.000000e+00
     vertex  1.423932e+00 -9.790741e-01  0.000000e+00
     vertex  1.184058e+00 -8.838195e-01  0.000000e+00
   endloop
 endfacet
 facet normal  0.000000e+00 -0.000000e+00 -1.000000e+00
   outer loop
     vertex  1.429980e+00  1.195823e+00  0.000000e+00
     vertex  1.644123e+00 -1.058428e+00  0.000000e+00
     vertex  1.423932e+00 -9.790741e-01  0.000000e+00
   endloop
 endfacet
 facet normal  0.000000e+00  0.000000e+00 -1.000000e+00
   outer loop
     vertex  1.429980e+00  1.195823e+00  0.000000e+00
     vertex  1.423932e+00 -9.790741e-01  0.000000e+00
     vertex  1.147738e+00  1.059299e+00  0.000000e+00
   endloop
 endfacet
 facet normal  0.000000e+00  0.000000e+00 -1.000000e+00
   outer loop
     vertex  1.749760e+00  1.332459e+00  0.000000e+00
     vertex  1.644123e+00 -1.058428e+00  0.000000e+00
     vertex  1.429980e+00  1.195823e+00  0.000000e+00
   endloop
 endfacet
 facet normal  0.000000e+00 -0.000000e+00 -1.000000e+00
   outer loop
     vertex  1.749760e+00  1.332459e+00  0.000000e+00
     vertex  1.940277e+00 -1.154994e+00  0.000000e+00
     vertex  1.644123e+00 -1.058428e+00  0.000000e+00
   endloop
 endfacet
 facet normal  0.000000e+00  0.000000e+00 -1.000000e+00
   outer loop
     vertex  2.084460e+00  1.460628e+00  0.000000e+00
     vertex  1.940277e+00 -1.154994e+00  0.000000e+00
     vertex  1.749760e+00  1.332459e+00  0.000000e+00
   endloop
 endfacet
 facet normal  0.000000e+00 -0.000000e+00 -1.000000e+00
   outer loop
     vertex  2.084460e+00  1.460628e+00  0.000000e+00
     vertex  2.276371e+00 -1.253522e+00  0.000000e+00
     vertex  1.940277e+00 -1.154994e+00  0.000000e+00
   endloop
 endfacet
 facet normal  0.000000e+00  0.000000e+00 -1.000000e+00
   outer loop
     vertex  2.423232e+00  1.578313e+00  0.000000e+00
     vertex  2.276371e+00 -1.253522e+00  0.000000e+00
     vertex  2.084460e+00  1.460628e+00  0.000000e+00
   endloop
 endfacet
 facet normal  0.000000e+00 -0.000000e+00 -1.000000e+00
   outer loop
     vertex  2.423232e+00  1.578313e+00  0.000000e+00
     vertex  2.728233e+00 -1.372421e+00  0.000000e+00
     vertex  2.276371e+00 -1.253522e+00  0.000000e+00
   endloop
 endfacet
 facet normal  0.000000e+00  0.000000e+00 -1.000000e+00
   outer loop
     vertex  3.062434e+00  1.773629e+00  0.000000e+00
     vertex  2.728233e+00 -1.372421e+00  0.000000e+00
     vertex  2.423232e+00  1.578313e+00  0.000000e+00
   endloop
 endfacet
 facet normal  0.000000e+00 -0.000000e+00 -1.000000e+00
   outer loop
     vertex  3.062434e+00  1.773629e+00  0.000000e+00
     vertex  3.240558e+00 -1.491314e+00  0.000000e+00
     vertex  2.728233e+00 -1.372421e+00  0.000000e+00
   endloop
 endfacet
 facet normal  0.000000e+00  0.000000e+00 -1.000000e+00
   outer loop
     vertex  3.925396e+00  1.994592e+00  0.000000e+00
     vertex  3.240558e+00 -1.491314e+00  0.000000e+00
     vertex  3.062434e+00  1.773629e+00  0.000000e+00
   endloop
 endfacet
 facet normal  0.000000e+00 -0.000000e+00 -1.000000e+00
   outer loop
     vertex  3.925396e+00  1.994592e+00  0.000000e+00
     vertex  3.928217e+00 -1.628236e+00  0.000000e+00
     vertex  3.240558e+00 -1.491314e+00  0.000000e+00
   endloop
 endfacet
 facet normal  0.000000e+00  0.000000e+00 -1.000000e+00
   outer loop
     vertex  3.925396e+00  1.994592e+00  0.000000e+00
     vertex  4.706215e+00 -1.757424e+00  0.000000e+00
     vertex  3.928217e+00 -1.628236e+00  0.000000e+00
   endloop
 endfacet
 facet normal  0.000000e+00  0.000000e+00 -1.000000e+00
   outer loop
     vertex  5.088439e+00  2.235228e+00  0.000000e+00
     vertex  4.706215e+00 -1.757424e+00  0.000000e+00
     vertex  3.925396e+00  1.994592e+00  0.000000e+00
   endloop
 endfacet
 facet normal  0.000000e+00 -0.000000e+00 -1.000000e+00
   outer loop
     vertex  5.088439e+00  2.235228e+00  0.000000e+00
     vertex  5.748389e+00 -1.897356e+00  0.000000e+00
     vertex  4.706215e+00 -1.757424e+00  0.000000e+00
   endloop
 endfacet
 facet normal  0.000000e+00  0.000000e+00 -1.000000e+00
   outer loop
     vertex  6.652313e+00  2.484194e+00  0.000000e+00
     vertex  5.748389e+00 -1.897356e+00  0.000000e+00
     vertex  5.088439e+00  2.235228e+00  0.000000e+00
   endloop
 endfacet
 facet normal  0.000000e+00 -0.000000e+00 -1.000000e+00
   outer loop
     vertex  6.652313e+00  2.484194e+00  0.000000e+00
     vertex  6.925129e+00 -2.018628e+00  0.000000e+00
     vertex  5.748389e+00 -1.897356e+00  0.000000e+00
   endloop
 endfacet
 facet normal  0.000000e+00  0.000000e+00 -1.000000e+00
   outer loop
     vertex  6.652313e+00  2.484194e+00  0.000000e+00
     vertex  8.498169e+00 -2.133918e+00  0.000000e+00
     vertex  6.925129e+00 -2.018628e+00  0.000000e+00
   endloop
 endfacet
 facet normal  0.000000e+00  0.000000e+00 -1.000000e+00
   outer loop
     vertex  8.750370e+00  2.720683e+00  0.000000e+00
     vertex  8.498169e+00 -2.133918e+00  0.000000e+00
     vertex  6.652313e+00  2.484194e+00  0.000000e+00
   endloop
 endfacet
 facet normal  0.000000e+00 -0.000000e+00 -1.000000e+00
   outer loop
     vertex  8.750370e+00  2.720683e+00  0.000000e+00
     vertex  1.086184e+01 -2.234588e+00  0.000000e+00
     vertex  8.498169e+00 -2.133918e+00  0.000000e+00
   endloop
 endfacet
 facet normal  0.000000e+00  0.000000e+00 -1.000000e+00
   outer loop
     vertex  1.155925e+01  2.907223e+00  0.000000e+00
     vertex  1.086184e+01 -2.234588e+00  0.000000e+00
     vertex  8.750370e+00  2.720683e+00  0.000000e+00
   endloop
 endfacet
 facet normal  0.000000e+00 -0.000000e+00 -1.000000e+00
   outer loop
     vertex  1.155925e+01  2.907223e+00  0.000000e+00
     vertex  1.441032e+01 -2.273533e+00  0.000000e+00
     vertex  1.086184e+01 -2.234588e+00  0.000000e+00
   endloop
 endfacet
 facet normal  0.000000e+00  0.000000e+00 -1.000000e+00
   outer loop
     vertex  1.503390e+01  2.977284e+00  0.000000e+00
     vertex  1.441032e+01 -2.273533e+00  0.000000e+00
     vertex  1.155925e+01  2.907223e+00  0.000000e+00
   endloop
 endfacet
 facet normal -0.000000e+00  0.000000e+00 -1.000000e+00
   outer loop
     vertex  1.850830e+01  2.893805e+00  0.000000e+00
     vertex  1.441032e+01 -2.273533e+00  0.000000e+00
     vertex  1.503390e+01  2.977284e+00  0.000000e+00
   endloop
 endfacet
 facet normal  0.000000e+00 -0.000000e+00 -1.000000e+00
   outer loop
     vertex  1.850830e+01  2.893805e+00  0.000000e+00
     vertex  2.216043e+01 -2.087421e+00  0.000000e+00
     vertex  1.441032e+01 -2.273533e+00  0.000000e+00
   endloop
 endfacet
 facet normal -0.000000e+00  0.000000e+00 -1.000000e+00
   outer loop
     vertex  2.225270e+01  2.634111e+00  0.000000e+00
     vertex  2.216043e+01 -2.087421e+00  0.000000e+00
     vertex  1.850830e+01  2.893805e+00  0.000000e+00
   endloop
 endfacet
 facet normal -0.000000e+00  0.000000e+00 -1.000000e+00
   outer loop
     vertex  2.532136e+01  2.278020e+00  0.000000e+00
     vertex  2.216043e+01 -2.087421e+00  0.000000e+00
     vertex  2.225270e+01  2.634111e+00  0.000000e+00
   endloop
 endfacet
 facet normal -0.000000e+00  0.000000e+00 -1.000000e+00
   outer loop
     vertex  3.222220e+01 -1.560605e+00  0.000000e+00
     vertex  2.216043e+01 -2.087421e+00  0.000000e+00
     vertex  2.532136e+01  2.278020e+00  0.000000e+00
   endloop
 endfacet
 facet normal -0.000000e+00  0.000000e+00 -1.000000e+00
   outer loop
     vertex  3.435314e+01  7.900337e-01  0.000000e+00
     vertex  3.222220e+01 -1.560605e+00  0.000000e+00
     vertex  2.532136e+01  2.278020e+00  0.000000e+00
   endloop
 endfacet
 facet normal -0.000000e+00  0.000000e+00 -1.000000e+00
   outer loop
     vertex  3.707600e+01  4.338533e-01  0.000000e+00
     vertex  3.222220e+01 -1.560605e+00  0.000000e+00
     vertex  3.435314e+01  7.900337e-01  0.000000e+00
   endloop
 endfacet
 facet normal -0.000000e+00  0.000000e+00 -1.000000e+00
   outer loop
     vertex  3.980860e+01  1.618942e-01  0.000000e+00
     vertex  3.222220e+01 -1.560605e+00  0.000000e+00
     vertex  3.707600e+01  4.338533e-01  0.000000e+00
   endloop
 endfacet
 facet normal  0.000000e+00  0.000000e+00 -1.000000e+00
   outer loop
     vertex  4.518314e+01 -6.965884e-01  0.000000e+00
     vertex  4.254987e+01  3.682657e-04  0.000000e+00
     vertex  4.450993e+01 -4.074104e-02  0.000000e+00
   endloop
 endfacet
 facet normal  0.000000e+00  0.000000e+00 -1.000000e+00
   outer loop
     vertex  4.518314e+01 -6.965884e-01  0.000000e+00
     vertex  3.980860e+01  1.618942e-01  0.000000e+00
     vertex  4.254987e+01  3.682657e-04  0.000000e+00
   endloop
 endfacet
 facet normal -0.000000e+00  0.000000e+00 -1.000000e+00
   outer loop
     vertex  4.518314e+01 -6.965884e-01  0.000000e+00
     vertex  3.222220e+01 -1.560605e+00  0.000000e+00
     vertex  3.980860e+01  1.618942e-01  0.000000e+00
   endloop
 endfacet
 facet normal  0.000000e+00  0.000000e+00 -1.000000e+00
   outer loop
     vertex  4.641005e+01 -2.531339e-02  0.000000e+00
     vertex  4.518314e+01 -6.965884e-01  0.000000e+00
     vertex  4.450993e+01 -4.074104e-02  0.000000e+00
   endloop
 endfacet
 facet normal -0.000000e+00  0.000000e+00 -1.000000e+00
   outer loop
     vertex  4.821903e+01 -4.528773e-01  0.000000e+00
     vertex  4.518314e+01 -6.965884e-01  0.000000e+00
     vertex  4.641005e+01 -2.531339e-02  0.000000e+00
   endloop
 endfacet
 facet normal  0.000000e+00 -0.000000e+00 -1.000000e+00
   outer loop
     vertex  4.814666e+01  4.292903e-02  0.000000e+00
     vertex  4.821903e+01 -4.528773e-01  0.000000e+00
     vertex  4.641005e+01 -2.531339e-02  0.000000e+00
   endloop
 endfacet
 facet normal -0.000000e+00  0.000000e+00 -1.000000e+00
   outer loop
     vertex  4.901111e+01 -3.742222e-01  0.000000e+00
     vertex  4.821903e+01 -4.528773e-01  0.000000e+00
     vertex  4.814666e+01  4.292903e-02  0.000000e+00
   endloop
 endfacet
 facet normal  0.000000e+00  0.000000e+00 -1.000000e+00
   outer loop
     vertex  4.958030e+01  1.661203e-01  0.000000e+00
     vertex  4.901111e+01 -3.742222e-01  0.000000e+00
     vertex  4.814666e+01  4.292903e-02  0.000000e+00
   endloop
 endfacet
 facet normal  0.000000e+00  0.000000e+00 -1.000000e+00
   outer loop
     vertex  4.958030e+01  1.661203e-01  0.000000e+00
     vertex  4.935281e+01 -3.304252e-01  0.000000e+00
     vertex  4.901111e+01 -3.742222e-01  0.000000e+00
   endloop
 endfacet
 facet normal  0.000000e+00 -0.000000e+00 -1.000000e+00
   outer loop
     vertex  4.958030e+01  1.661203e-01  0.000000e+00
     vertex  4.969336e+01 -2.770529e-01  0.000000e+00
     vertex  4.935281e+01 -3.304252e-01  0.000000e+00
   endloop
 endfacet
 facet normal  0.000000e+00 -0.000000e+00 -1.000000e+00
   outer loop
     vertex  4.968642e+01  1.809684e-01  0.000000e+00
     vertex  4.969336e+01 -2.770529e-01  0.000000e+00
     vertex  4.958030e+01  1.661203e-01  0.000000e+00
   endloop
 endfacet
 facet normal  0.000000e+00  0.000000e+00 -1.000000e+00
   outer loop
     vertex  4.968642e+01  1.809684e-01  0.000000e+00
     vertex  4.976968e+01 -2.669837e-01  0.000000e+00
     vertex  4.969336e+01 -2.770529e-01  0.000000e+00
   endloop
 endfacet
 facet normal  0.000000e+00  0.000000e+00 -1.000000e+00
   outer loop
     vertex  4.979187e+01  1.993316e-01  0.000000e+00
     vertex  4.976968e+01 -2.669837e-01  0.000000e+00
     vertex  4.968642e+01  1.809684e-01  0.000000e+00
   endloop
 endfacet
 facet normal  0.000000e+00 -0.000000e+00 -1.000000e+00
   outer loop
     vertex  4.979187e+01  1.993316e-01  0.000000e+00
     vertex  4.984620e+01 -2.588497e-01  0.000000e+00
     vertex  4.976968e+01 -2.669837e-01  0.000000e+00
   endloop
 endfacet
 facet normal  0.000000e+00  0.000000e+00 -1.000000e+00
   outer loop
     vertex  4.979187e+01  1.993316e-01  0.000000e+00
     vertex  4.992297e+01 -2.531407e-01  0.000000e+00
     vertex  4.984620e+01 -2.588497e-01  0.000000e+00
   endloop
 endfacet
 facet normal  0.000000e+00 -0.000000e+00 -1.000000e+00
   outer loop
     vertex  4.989643e+01  2.221788e-01  0.000000e+00
     vertex  4.992297e+01 -2.531407e-01  0.000000e+00
     vertex  4.979187e+01  1.993316e-01  0.000000e+00
   endloop
 endfacet
 facet normal  0.000000e+00  0.000000e+00 -1.000000e+00
   outer loop
     vertex  4.989643e+01  2.221788e-01  0.000000e+00
     vertex  5.000000e+01 -2.500000e-01  0.000000e+00
     vertex  4.992297e+01 -2.531407e-01  0.000000e+00
   endloop
 endfacet
 facet normal  0.000000e+00 -0.000000e+00 -1.000000e+00
   outer loop
     vertex  5.000000e+01  2.500000e-01  0.000000e+00
     vertex  5.000000e+01 -2.500000e-01  0.000000e+00
     vertex  4.989643e+01  2.221788e-01  0.000000e+00
   endloop
 endfacet
 facet normal  0.000000e+00  0.000000e+00  1.000000e+00
   outer loop
     vertex -7.811380e-04 -2.135941e-02  5.000000e+01
     vertex  5.891852e-04 -3.745759e-02  5.000000e+01
     vertex  3.027197e-03 -5.330910e-02  5.000000e+01
   endloop
 endfacet
 facet normal  0.000000e+00  0.000000e+00  1.000000e+00
   outer loop
     vertex -1.063762e-03 -4.708342e-03  5.000000e+01
     vertex -7.811380e-04 -2.135941e-02  5.000000e+01
     vertex  3.027197e-03 -5.330910e-02  5.000000e+01
   endloop
 endfacet
 facet normal  0.000000e+00  0.000000e+00  1.000000e+00
   outer loop
     vertex -1.063762e-03 -4.708342e-03  5.000000e+01
     vertex  3.027197e-03 -5.330910e-02  5.000000e+01
     vertex  6.593448e-03 -6.943633e-02  5.000000e+01
   endloop
 endfacet
 facet normal  0.000000e+00  0.000000e+00  1.000000e+00
   outer loop
     vertex -2.177137e-04  1.255227e-02  5.000000e+01
     vertex -1.063762e-03 -4.708342e-03  5.000000e+01
     vertex  6.593448e-03 -6.943633e-02  5.000000e+01
   endloop
 endfacet
 facet normal  0.000000e+00  0.000000e+00  1.000000e+00
   outer loop
     vertex -2.177137e-04  1.255227e-02  5.000000e+01
     vertex  6.593448e-03 -6.943633e-02  5.000000e+01
     vertex  1.132915e-02 -8.588158e-02  5.000000e+01
   endloop
 endfacet
 facet normal  0.000000e+00  0.000000e+00  1.000000e+00
   outer loop
     vertex  1.808625e-03  3.048255e-02  5.000000e+01
     vertex -2.177137e-04  1.255227e-02  5.000000e+01
     vertex  1.132915e-02 -8.588158e-02  5.000000e+01
   endloop
 endfacet
 facet normal  0.000000e+00  0.000000e+00  1.000000e+00
   outer loop
     vertex  1.808625e-03  3.048255e-02  5.000000e+01
     vertex  1.132915e-02 -8.588158e-02  5.000000e+01
     vertex  1.728526e-02 -1.026875e-01  5.000000e+01
   endloop
 endfacet
 facet normal  0.000000e+00  0.000000e+00  1.000000e+00
   outer loop
     vertex  5.078339e-03  4.914666e-02  5.000000e+01
     vertex  1.808625e-03  3.048255e-02  5.000000e+01
     vertex  1.728526e-02 -1.026875e-01  5.000000e+01
   endloop
 endfacet
 facet normal  0.000000e+00  0.000000e+00  1.000000e+00
   outer loop
     vertex  5.078339e-03  4.914666e-02  5.000000e+01
     vertex  1.728526e-02 -1.026875e-01  5.000000e+01
     vertex  2.452225e-02 -1.198974e-01  5.000000e+01
   endloop
 endfacet
 facet normal  0.000000e+00  0.000000e+00  1.000000e+00
   outer loop
     vertex  9.666361e-03  6.861384e-02  5.000000e+01
     vertex  5.078339e-03  4.914666e-02  5.000000e+01
     vertex  2.452225e-02 -1.198974e-01  5.000000e+01
   endloop
 endfacet
 facet normal  0.000000e+00  0.000000e+00  1.000000e+00
   outer loop
     vertex  9.666361e-03  6.861384e-02  5.000000e+01
     vertex  2.452225e-02 -1.198974e-01  5.000000e+01
     vertex  3.311009e-02 -1.375555e-01  5.000000e+01
   endloop
 endfacet
 facet normal  0.000000e+00  0.000000e+00  1.000000e+00
   outer loop
     vertex  1.478612e-02  8.622435e-02  5.000000e+01
     vertex  9.666361e-03  6.861384e-02  5.000000e+01
     vertex  3.311009e-02 -1.375555e-01  5.000000e+01
   endloop
 endfacet
 facet normal  0.000000e+00  0.000000e+00  1.000000e+00
   outer loop
     vertex  1.478612e-02  8.622435e-02  5.000000e+01
     vertex  3.311009e-02 -1.375555e-01  5.000000e+01
     vertex  4.296157e-02 -1.554225e-01  5.000000e+01
   endloop
 endfacet
 facet normal  0.000000e+00  0.000000e+00  1.000000e+00
   outer loop
     vertex  2.147538e-02  1.057634e-01  5.000000e+01
     vertex  1.478612e-02  8.622435e-02  5.000000e+01
     vertex  4.296157e-02 -1.554225e-01  5.000000e+01
   endloop
 endfacet
 facet normal  0.000000e+00  0.000000e+00  1.000000e+00
   outer loop
     vertex  2.147538e-02  1.057634e-01  5.000000e+01
     vertex  4.296157e-02 -1.554225e-01  5.000000e+01
     vertex  5.514331e-02 -1.751365e-01  5.000000e+01
   endloop
 endfacet
 facet normal  0.000000e+00  0.000000e+00  1.000000e+00
   outer loop
     vertex  3.004129e-02  1.274019e-01  5.000000e+01
     vertex  2.147538e-02  1.057634e-01  5.000000e+01
     vertex  5.514331e-02 -1.751365e-01  5.000000e+01
   endloop
 endfacet
 facet normal  0.000000e+00  0.000000e+00  1.000000e+00
   outer loop
     vertex  3.004129e-02  1.274019e-01  5.000000e+01
     vertex  5.514331e-02 -1.751365e-01  5.000000e+01
     vertex  6.996431e-02 -1.966707e-01  5.000000e+01
   endloop
 endfacet
 facet normal  0.000000e+00  0.000000e+00  1.000000e+00
   outer loop
     vertex  4.081838e-02  1.513057e-01  5.000000e+01
     vertex  3.004129e-02  1.274019e-01  5.000000e+01
     vertex  6.996431e-02 -1.966707e-01  5.000000e+01
   endloop
 endfacet
 facet normal  0.000000e+00  0.000000e+00  1.000000e+00
   outer loop
     vertex  4.081838e-02  1.513057e-01  5.000000e+01
     vertex  6.996431e-02 -1.966707e-01  5.000000e+01
     vertex  8.781875e-02 -2.201140e-01  5.000000e+01
   endloop
 endfacet
 facet normal  0.000000e+00  0.000000e+00  1.000000e+00
   outer loop
     vertex  5.415591e-02  1.776249e-01  5.000000e+01
     vertex  4.081838e-02  1.513057e-01  5.000000e+01
     vertex  8.781875e-02 -2.201140e-01  5.000000e+01
   endloop
 endfacet
 facet normal  0.000000e+00  0.000000e+00  1.000000e+00
   outer loop
     vertex  5.415591e-02  1.776249e-01  5.000000e+01
     vertex  8.781875e-02 -2.201140e-01  5.000000e+01
     vertex  1.069069e-01 -2.430186e-01  5.000000e+01
   endloop
 endfacet
 facet normal  0.000000e+00  0.000000e+00  1.000000e+00
   outer loop
     vertex  7.174988e-02  2.087634e-01  5.000000e+01
     vertex  1.069069e-01 -2.430186e-01  5.000000e+01
     vertex  1.364651e-01 -2.753840e-01  5.000000e+01
   endloop
 endfacet
 facet normal  0.000000e+00  0.000000e+00  1.000000e+00
   outer loop
     vertex  7.174988e-02  2.087634e-01  5.000000e+01
     vertex  5.415591e-02  1.776249e-01  5.000000e+01
     vertex  1.069069e-01 -2.430186e-01  5.000000e+01
   endloop
 endfacet
 facet normal  0.000000e+00  0.000000e+00  1.000000e+00
   outer loop
     vertex  9.463514e-02  2.453036e-01  5.000000e+01
     vertex  7.174988e-02  2.087634e-01  5.000000e+01
     vertex  1.364651e-01 -2.753840e-01  5.000000e+01
   endloop
 endfacet
 facet normal  0.000000e+00  0.000000e+00  1.000000e+00
   outer loop
     vertex  9.463514e-02  2.453036e-01  5.000000e+01
     vertex  1.364651e-01 -2.753840e-01  5.000000e+01
     vertex  1.748109e-01 -3.135285e-01  5.000000e+01
   endloop
 endfacet
 facet normal  0.000000e+00  0.000000e+00  1.000000e+00
   outer loop
     vertex  1.280271e-01  2.935494e-01  5.000000e+01
     vertex  9.463514e-02  2.453036e-01  5.000000e+01
     vertex  1.748109e-01 -3.135285e-01  5.000000e+01
   endloop
 endfacet
 facet normal  0.000000e+00  0.000000e+00  1.000000e+00
   outer loop
     vertex  1.280271e-01  2.935494e-01  5.000000e+01
     vertex  1.748109e-01 -3.135285e-01  5.000000e+01
     vertex  2.184883e-01 -3.534156e-01  5.000000e+01
   endloop
 endfacet
 facet normal  0.000000e+00  0.000000e+00  1.000000e+00
   outer loop
     vertex  1.628274e-01  3.393898e-01  5.000000e+01
     vertex  2.184883e-01 -3.534156e-01  5.000000e+01
     vertex  2.700409e-01 -3.965523e-01  5.000000e+01
   endloop
 endfacet
 facet normal  0.000000e+00  0.000000e+00  1.000000e+00
   outer loop
     vertex  1.628274e-01  3.393898e-01  5.000000e+01
     vertex  1.280271e-01  2.935494e-01  5.000000e+01
     vertex  2.184883e-01 -3.534156e-01  5.000000e+01
   endloop
 endfacet
 facet normal  0.000000e+00  0.000000e+00  1.000000e+00
   outer loop
     vertex  2.029775e-01  3.877122e-01  5.000000e+01
     vertex  2.700409e-01 -3.965523e-01  5.000000e+01
     vertex  3.301066e-01 -4.422349e-01  5.000000e+01
   endloop
 endfacet
 facet normal  0.000000e+00  0.000000e+00  1.000000e+00
   outer loop
     vertex  2.029775e-01  3.877122e-01  5.000000e+01
     vertex  1.628274e-01  3.393898e-01  5.000000e+01
     vertex  2.700409e-01 -3.965523e-01  5.000000e+01
   endloop
 endfacet
 facet normal  0.000000e+00  0.000000e+00  1.000000e+00
   outer loop
     vertex  2.493029e-01  4.385121e-01  5.000000e+01
     vertex  2.029775e-01  3.877122e-01  5.000000e+01
     vertex  3.301066e-01 -4.422349e-01  5.000000e+01
   endloop
 endfacet
 facet normal  0.000000e+00  0.000000e+00  1.000000e+00
   outer loop
     vertex  3.027320e-01  4.918426e-01  5.000000e+01
     vertex  3.301066e-01 -4.422349e-01  5.000000e+01
     vertex  3.970714e-01 -4.883830e-01  5.000000e+01
   endloop
 endfacet
 facet normal  0.000000e+00  0.000000e+00  1.000000e+00
   outer loop
     vertex  3.027320e-01  4.918426e-01  5.000000e+01
     vertex  2.493029e-01  4.385121e-01  5.000000e+01
     vertex  3.301066e-01 -4.422349e-01  5.000000e+01
   endloop
 endfacet
 facet normal  0.000000e+00  0.000000e+00  1.000000e+00
   outer loop
     vertex  3.693107e-01  5.522370e-01  5.000000e+01
     vertex  3.970714e-01 -4.883830e-01  5.000000e+01
     vertex  4.672425e-01 -5.324489e-01  5.000000e+01
   endloop
 endfacet
 facet normal  0.000000e+00  0.000000e+00  1.000000e+00
   outer loop
     vertex  3.693107e-01  5.522370e-01  5.000000e+01
     vertex  4.672425e-01 -5.324489e-01  5.000000e+01
     vertex  5.385810e-01 -5.738318e-01  5.000000e+01
   endloop
 endfacet
 facet normal  0.000000e+00  0.000000e+00  1.000000e+00
   outer loop
     vertex  3.693107e-01  5.522370e-01  5.000000e+01
     vertex  3.027320e-01  4.918426e-01  5.000000e+01
     vertex  3.970714e-01 -4.883830e-01  5.000000e+01
   endloop
 endfacet
 facet normal  0.000000e+00  0.000000e+00  1.000000e+00
   outer loop
     vertex  4.617344e-01  6.281573e-01  5.000000e+01
     vertex  3.693107e-01  5.522370e-01  5.000000e+01
     vertex  5.385810e-01 -5.738318e-01  5.000000e+01
   endloop
 endfacet
 facet normal  0.000000e+00  0.000000e+00  1.000000e+00
   outer loop
     vertex  5.941230e-01  7.267682e-01  5.000000e+01
     vertex  5.385810e-01 -5.738318e-01  5.000000e+01
     vertex  7.428468e-01 -6.814636e-01  5.000000e+01
   endloop
 endfacet
 facet normal  0.000000e+00  0.000000e+00  1.000000e+00
   outer loop
     vertex  5.941230e-01  7.267682e-01  5.000000e+01
     vertex  4.617344e-01  6.281573e-01  5.000000e+01
     vertex  5.385810e-01 -5.738318e-01  5.000000e+01
   endloop
 endfacet
 facet normal  0.000000e+00  0.000000e+00  1.000000e+00
   outer loop
     vertex  7.474947e-01  8.300118e-01  5.000000e+01
     vertex  5.941230e-01  7.267682e-01  5.000000e+01
     vertex  7.428468e-01 -6.814636e-01  5.000000e+01
   endloop
 endfacet
 facet normal  0.000000e+00  0.000000e+00  1.000000e+00
   outer loop
     vertex  7.474947e-01  8.300118e-01  5.000000e+01
     vertex  7.428468e-01 -6.814636e-01  5.000000e+01
     vertex  9.530979e-01 -7.825345e-01  5.000000e+01
   endloop
 endfacet
 facet normal  0.000000e+00  0.000000e+00  1.000000e+00
   outer loop
     vertex  9.239490e-01  9.372406e-01  5.000000e+01
     vertex  9.530979e-01 -7.825345e-01  5.000000e+01
     vertex  1.184058e+00 -8.838195e-01  5.000000e+01
   endloop
 endfacet
 facet normal  0.000000e+00  0.000000e+00  1.000000e+00
   outer loop
     vertex  9.239490e-01  9.372406e-01  5.000000e+01
     vertex  7.474947e-01  8.300118e-01  5.000000e+01
     vertex  9.530979e-01 -7.825345e-01  5.000000e+01
   endloop
 endfacet
 facet normal  0.000000e+00  0.000000e+00  1.000000e+00
   outer loop
     vertex  1.147738e+00  1.059299e+00  5.000000e+01
     vertex  9.239490e-01  9.372406e-01  5.000000e+01
     vertex  1.184058e+00 -8.838195e-01  5.000000e+01
   endloop
 endfacet
 facet normal  0.000000e+00  0.000000e+00  1.000000e+00
   outer loop
     vertex  1.147738e+00  1.059299e+00  5.000000e+01
     vertex  1.184058e+00 -8.838195e-01  5.000000e+01
     vertex  1.423932e+00 -9.790741e-01  5.000000e+01
   endloop
 endfacet
 facet normal  0.000000e+00  0.000000e+00  1.000000e+00
   outer loop
     vertex  1.429980e+00  1.195823e+00  5.000000e+01
     vertex  1.423932e+00 -9.790741e-01  5.000000e+01
     vertex  1.644123e+00 -1.058428e+00  5.000000e+01
   endloop
 endfacet
 facet normal  0.000000e+00  0.000000e+00  1.000000e+00
   outer loop
     vertex  1.429980e+00  1.195823e+00  5.000000e+01
     vertex  1.147738e+00  1.059299e+00  5.000000e+01
     vertex  1.423932e+00 -9.790741e-01  5.000000e+01
   endloop
 endfacet
 facet normal  0.000000e+00  0.000000e+00  1.000000e+00
   outer loop
     vertex  1.749760e+00  1.332459e+00  5.000000e+01
     vertex  1.429980e+00  1.195823e+00  5.000000e+01
     vertex  1.644123e+00 -1.058428e+00  5.000000e+01
   endloop
 endfacet
 facet normal  0.000000e+00  0.000000e+00  1.000000e+00
   outer loop
     vertex  1.749760e+00  1.332459e+00  5.000000e+01
     vertex  1.644123e+00 -1.058428e+00  5.000000e+01
     vertex  1.940277e+00 -1.154994e+00  5.000000e+01
   endloop
 endfacet
 facet normal  0.000000e+00  0.000000e+00  1.000000e+00
   outer loop
     vertex  2.084460e+00  1.460628e+00  5.000000e+01
     vertex  1.749760e+00  1.332459e+00  5.000000e+01
     vertex  1.940277e+00 -1.154994e+00  5.000000e+01
   endloop
 endfacet
 facet normal  0.000000e+00  0.000000e+00  1.000000e+00
   outer loop
     vertex  2.084460e+00  1.460628e+00  5.000000e+01
     vertex  1.940277e+00 -1.154994e+00  5.000000e+01
     vertex  2.276371e+00 -1.253522e+00  5.000000e+01
   endloop
 endfacet
 facet normal  0.000000e+00  0.000000e+00  1.000000e+00
   outer loop
     vertex  2.423232e+00  1.578313e+00  5.000000e+01
     vertex  2.084460e+00  1.460628e+00  5.000000e+01
     vertex  2.276371e+00 -1.253522e+00  5.000000e+01
   endloop
 endfacet
 facet normal  0.000000e+00  0.000000e+00  1.000000e+00
   outer loop
     vertex  2.423232e+00  1.578313e+00  5.000000e+01
     vertex  2.276371e+00 -1.253522e+00  5.000000e+01
     vertex  2.728233e+00 -1.372421e+00  5.000000e+01
   endloop
 endfacet
 facet normal  0.000000e+00  0.000000e+00  1.000000e+00
   outer loop
     vertex  3.062434e+00  1.773629e+00  5.000000e+01
     vertex  2.423232e+00  1.578313e+00  5.000000e+01
     vertex  2.728233e+00 -1.372421e+00  5.000000e+01
   endloop
 endfacet
 facet normal  0.000000e+00  0.000000e+00  1.000000e+00
   outer loop
     vertex  3.062434e+00  1.773629e+00  5.000000e+01
     vertex  2.728233e+00 -1.372421e+00  5.000000e+01
     vertex  3.240558e+00 -1.491314e+00  5.000000e+01
   endloop
 endfacet
 facet normal  0.000000e+00  0.000000e+00  1.000000e+00
   outer loop
     vertex  3.925396e+00  1.994592e+00  5.000000e+01
     vertex  3.062434e+00  1.773629e+00  5.000000e+01
     vertex  3.240558e+00 -1.491314e+00  5.000000e+01
   endloop
 endfacet
 facet normal  0.000000e+00  0.000000e+00  1.000000e+00
   outer loop
     vertex  3.925396e+00  1.994592e+00  5.000000e+01
     vertex  3.240558e+00 -1.491314e+00  5.000000e+01
     vertex  3.928217e+00 -1.628236e+00  5.000000e+01
   endloop
 endfacet
 facet normal  0.000000e+00  0.000000e+00  1.000000e+00
   outer loop
     vertex  3.925396e+00  1.994592e+00  5.000000e+01
     vertex  3.928217e+00 -1.628236e+00  5.000000e+01
     vertex  4.706215e+00 -1.757424e+00  5.000000e+01
   endloop
 endfacet
 facet normal  0.000000e+00  0.000000e+00  1.000000e+00
   outer loop
     vertex  5.088439e+00  2.235228e+00  5.000000e+01
     vertex  3.925396e+00  1.994592e+00  5.000000e+01
     vertex  4.706215e+00 -1.757424e+00  5.000000e+01
   endloop
 endfacet
 facet normal  0.000000e+00  0.000000e+00  1.000000e+00
   outer loop
     vertex  5.088439e+00  2.235228e+00  5.000000e+01
     vertex  4.706215e+00 -1.757424e+00  5.000000e+01
     vertex  5.748389e+00 -1.897356e+00  5.000000e+01
   endloop
 endfacet
 facet normal  0.000000e+00  0.000000e+00  1.000000e+00
   outer loop
     vertex  6.652313e+00  2.484194e+00  5.000000e+01
     vertex  5.088439e+00  2.235228e+00  5.000000e+01
     vertex  5.748389e+00 -1.897356e+00  5.000000e+01
   endloop
 endfacet
 facet normal  0.000000e+00  0.000000e+00  1.000000e+00
   outer loop
     vertex  6.652313e+00  2.484194e+00  5.000000e+01
     vertex  5.748389e+00 -1.897356e+00  5.000000e+01
     vertex  6.925129e+00 -2.018628e+00  5.000000e+01
   endloop
 endfacet
 facet normal  0.000000e+00  0.000000e+00  1.000000e+00
   outer loop
     vertex  6.652313e+00  2.484194e+00  5.000000e+01
     vertex  6.925129e+00 -2.018628e+00  5.000000e+01
     vertex  8.498169e+00 -2.133918e+00  5.000000e+01
   endloop
 endfacet
 facet normal  0.000000e+00  0.000000e+00  1.000000e+00
   outer loop
     vertex  8.750370e+00  2.720683e+00  5.000000e+01
     vertex  6.652313e+00  2.484194e+00  5.000000e+01
     vertex  8.498169e+00 -2.133918e+00  5.000000e+01
   endloop
 endfacet
 facet normal  0.000000e+00  0.000000e+00  1.000000e+00
   outer loop
     vertex  8.750370e+00  2.720683e+00  5.000000e+01
     vertex  8.498169e+00 -2.133918e+00  5.000000e+01
     vertex  1.086184e+01 -2.234588e+00  5.000000e+01
   endloop
 endfacet
 facet normal  0.000000e+00  0.000000e+00  1.000000e+00
   outer loop
     vertex  1.155925e+01  2.907223e+00  5.000000e+01
     vertex  8.750370e+00  2.720683e+00  5.000000e+01
     vertex  1.086184e+01 -2.234588e+00  5.000000e+01
   endloop
 endfacet
 facet normal  0.000000e+00  0.000000e+00  1.000000e+00
   outer loop
     vertex  1.155925e+01  2.907223e+00  5.000000e+01
     vertex  1.086184e+01 -2.234588e+00  5.000000e+01
     vertex  1.441032e+01 -2.273533e+00  5.000000e+01
   endloop
 endfacet
 facet normal  0.000000e+00  0.000000e+00  1.000000e+00
   outer loop
     vertex  1.503390e+01  2.977284e+00  5.000000e+01
     vertex  1.155925e+01  2.907223e+00  5.000000e+01
     vertex  1.441032e+01 -2.273533e+00  5.000000e+01
   endloop
 endfacet
 facet normal  0.000000e+00  0.000000e+00  1.000000e+00
   outer loop
     vertex  1.850830e+01  2.893805e+00  5.000000e+01
     vertex  1.503390e+01  2.977284e+00  5.000000e+01
     vertex  1.441032e+01 -2.273533e+00  5.000000e+01
   endloop
 endfacet
 facet normal  0.000000e+00  0.000000e+00  1.000000e+00
   outer loop
     vertex  1.850830e+01  2.893805e+00  5.000000e+01
     vertex  1.441032e+01 -2.273533e+00  5.000000e+01
     vertex  2.216043e+01 -2.087421e+00  5.000000e+01
   endloop
 endfacet
 facet normal  0.000000e+00  0.000000e+00  1.000000e+00
   outer loop
     vertex  2.225270e+01  2.634111e+00  5.000000e+01
     vertex  1.850830e+01  2.893805e+00  5.000000e+01
     vertex  2.216043e+01 -2.087421e+00  5.000000e+01
   endloop
 endfacet
 facet normal  0.000000e+00  0.000000e+00  1.000000e+00
   outer loop
     vertex  2.532136e+01  2.278020e+00  5.000000e+01
     vertex  2.225270e+01  2.634111e+00  5.000000e+01
     vertex  2.216043e+01 -2.087421e+00  5.000000e+01
   endloop
 endfacet
 facet normal  0.000000e+00  0.000000e+00  1.000000e+00
   outer loop
     vertex  3.222220e+01 -1.560605e+00  5.000000e+01
     vertex  2.532136e+01  2.278020e+00  5.000000e+01
     vertex  2.216043e+01 -2.087421e+00  5.000000e+01
   endloop
 endfacet
 facet normal  0.000000e+00  0.000000e+00  1.000000e+00
   outer loop
     vertex  3.435314e+01  7.900337e-01  5.000000e+01
     vertex  2.532136e+01  2.278020e+00  5.000000e+01
     vertex  3.222220e+01 -1.560605e+00  5.000000e+01
   endloop
 endfacet
 facet normal  0.000000e+00  0.000000e+00  1.000000e+00
   outer loop
     vertex  3.707600e+01  4.338533e-01  5.000000e+01
     vertex  3.435314e+01  7.900337e-01  5.000000e+01
     vertex  3.222220e+01 -1.560605e+00  5.000000e+01
   endloop
 endfacet
 facet normal  0.000000e+00  0.000000e+00  1.000000e+00
   outer loop
     vertex  3.980860e+01  1.618942e-01  5.000000e+01
     vertex  3.707600e+01  4.338533e-01  5.000000e+01
     vertex  3.222220e+01 -1.560605e+00  5.000000e+01
   endloop
 endfacet
 facet normal  0.000000e+00  0.000000e+00  1.000000e+00
   outer loop
     vertex  4.518314e+01 -6.965884e-01  5.000000e+01
     vertex  4.450993e+01 -4.074104e-02  5.000000e+01
     vertex  4.254987e+01  3.682657e-04  5.000000e+01
   endloop
 endfacet
 facet normal  0.000000e+00  0.000000e+00  1.000000e+00
   outer loop
     vertex  4.518314e+01 -6.965884e-01  5.000000e+01
     vertex  4.254987e+01  3.682657e-04  5.000000e+01
     vertex  3.980860e+01  1.618942e-01  5.000000e+01
   endloop
 endfacet
 facet normal  0.000000e+00  0.000000e+00  1.000000e+00
   outer loop
     vertex  4.518314e+01 -6.965884e-01  5.000000e+01
     vertex  3.980860e+01  1.618942e-01  5.000000e+01
     vertex  3.222220e+01 -1.560605e+00  5.000000e+01
   endloop
 endfacet
 facet normal  0.000000e+00  0.000000e+00  1.000000e+00
   outer loop
     vertex  4.641005e+01 -2.531339e-02  5.000000e+01
     vertex  4.450993e+01 -4.074104e-02  5.000000e+01
     vertex  4.518314e+01 -6.965884e-01  5.000000e+01
   endloop
 endfacet
 facet normal  0.000000e+00  0.000000e+00  1.000000e+00
   outer loop
     vertex  4.821903e+01 -4.528773e-01  5.000000e+01
     vertex  4.641005e+01 -2.531339e-02  5.000000e+01
     vertex  4.518314e+01 -6.965884e-01  5.000000e+01
   endloop
 endfacet
 facet normal  0.000000e+00  0.000000e+00  1.000000e+00
   outer loop
     vertex  4.814666e+01  4.292903e-02  5.000000e+01
     vertex  4.641005e+01 -2.531339e-02  5.000000e+01
     vertex  4.821903e+01 -4.528773e-01  5.000000e+01
   endloop
 endfacet
 facet normal  0.000000e+00  0.000000e+00  1.000000e+00
   outer loop
     vertex  4.901111e+01 -3.742222e-01  5.000000e+01
     vertex  4.814666e+01  4.292903e-02  5.000000e+01
     vertex  4.821903e+01 -4.528773e-01  5.000000e+01
   endloop
 endfacet
 facet normal  0.000000e+00  0.000000e+00  1.000000e+00
   outer loop
     vertex  4.958030e+01  1.661203e-01  5.000000e+01
     vertex  4.814666e+01  4.292903e-02  5.000000e+01
     vertex  4.901111e+01 -3.742222e-01  5.000000e+01
   endloop
 endfacet
 facet normal  0.000000e+00  0.000000e+00  1.000000e+00
   outer loop
     vertex  4.958030e+01  1.661203e-01  5.000000e+01
     vertex  4.901111e+01 -3.742222e-01  5.000000e+01
     vertex  4.935281e+01 -3.304252e-01  5.000000e+01
   endloop
 endfacet
 facet normal  0.000000e+00  0.000000e+00  1.000000e+00
   outer loop
     vertex  4.958030e+01  1.661203e-01  5.000000e+01
     vertex  4.935281e+01 -3.304252e-01  5.000000e+01
     vertex  4.969336e+01 -2.770529e-01  5.000000e+01
   endloop
 endfacet
 facet normal  0.000000e+00  0.000000e+00  1.000000e+00
   outer loop
     vertex  4.968642e+01  1.809684e-01  5.000000e+01
     vertex  4.958030e+01  1.661203e-01  5.000000e+01
     vertex  4.969336e+01 -2.770529e-01  5.000000e+01
   endloop
 endfacet
 facet normal  0.000000e+00  0.000000e+00  1.000000e+00
   outer loop
     vertex  4.968642e+01  1.809684e-01  5.000000e+01
     vertex  4.969336e+01 -2.770529e-01  5.000000e+01
     vertex  4.976968e+01 -2.669837e-01  5.000000e+01
   endloop
 endfacet
 facet normal  0.000000e+00  0.000000e+00  1.000000e+00
   outer loop
     vertex  4.979187e+01  1.993316e-01  5.000000e+01
     vertex  4.968642e+01  1.809684e-01  5.000000e+01
     vertex  4.976968e+01 -2.669837e-01  5.000000e+01
   endloop
 endfacet
 facet normal  0.000000e+00  0.000000e+00  1.000000e+00
   outer loop
     vertex  4.979187e+01  1.993316e-01  5.000000e+01
     vertex  4.976968e+01 -2.669837e-01  5.000000e+01
     vertex  4.984620e+01 -2.588497e-01  5.000000e+01
   endloop
 endfacet
 facet normal  0.000000e+00  0.000000e+00  1.000000e+00
   outer loop
     vertex  4.979187e+01  1.993316e-01  5.000000e+01
     vertex  4.984620e+01 -2.588497e-01  5.000000e+01
     vertex  4.992297e+01 -2.531407e-01  5.000000e+01
   endloop
 endfacet
 facet normal  0.000000e+00  0.000000e+00  1.000000e+00
   outer loop
     vertex  4.989643e+01  2.221788e-01  5.000000e+01
     vertex  4.979187e+01  1.993316e-01  5.000000e+01
     vertex  4.992297e+01 -2.531407e-01  5.000000e+01
   endloop
 endfacet
 facet normal  0.000000e+00  0.000000e+00  1.000000e+00
   outer loop
     vertex  4.989643e+01  2.221788e-01  5.000000e+01
     vertex  4.992297e+01 -2.531407e-01  5.000000e+01
     vertex  5.000000e+01 -2.500000e-01  5.000000e+01
   endloop
 endfacet
 facet normal  0.000000e+00  0.000000e+00  1.000000e+00
   outer loop
     vertex  5.000000e+01  2.500000e-01  5.000000e+01
     vertex  4.989643e+01  2.221788e-01  5.000000e+01
     vertex  5.000000e+01 -2.500000e-01  5.000000e+01
   endloop
 endfacet
endsolid
